<svg width="1920" height="1080" viewBox="0 0 1920 1080" fill="none" xmlns="http://www.w3.org/2000/svg">
<rect x="0.0507812" y="0.147461" width="1919.95" height="1079.85" fill="#171612"/>
<path d="M1920 0.741699L1919.97 88.0159L0.03031 88.0159L0.0303305 0.145675L1920 0.741699Z" fill="url(#paint0_linear_7_2240)"/>
<path d="M45.1181 57.1515L29.1701 34.4355H29.0261V49.9155C29.0261 51.1155 29.0621 52.0635 29.1341 52.7595C29.2301 53.4555 29.4101 53.9955 29.6741 54.3795C29.9621 54.7635 30.3461 55.0155 30.8261 55.1355C31.3301 55.2555 31.9781 55.3275 32.7701 55.3515V56.7915H22.0781V55.3515C22.9661 55.3275 23.6741 55.2555 24.2021 55.1355C24.7541 54.9915 25.1741 54.7395 25.4621 54.3795C25.7741 54.0195 25.9781 53.5155 26.0741 52.8675C26.1701 52.1955 26.2181 51.2955 26.2181 50.1675V35.6955C26.2181 34.6875 26.1701 33.8595 26.0741 33.2115C25.9781 32.5395 25.7981 32.0115 25.5341 31.6275C25.2701 31.2435 24.8861 30.9795 24.3821 30.8355C23.9021 30.6675 23.2541 30.5595 22.4381 30.5115V29.0715H32.4821L46.9901 49.8795H47.1341V35.9475C47.1341 34.7715 47.0861 33.8355 46.9901 33.1395C46.9181 32.4195 46.7381 31.8675 46.4501 31.4835C46.1861 31.0995 45.8021 30.8475 45.2981 30.7275C44.8181 30.6075 44.1821 30.5355 43.3901 30.5115V29.0715H54.0821V30.5115C53.1941 30.5355 52.4741 30.6195 51.9221 30.7635C51.3941 30.8835 50.9741 31.1235 50.6621 31.4835C50.3741 31.8435 50.1821 32.3595 50.0861 33.0315C49.9901 33.7035 49.9421 34.5915 49.9421 35.6955V57.1515H45.1181ZM73.3443 53.4435C71.1603 55.9155 68.4363 57.1515 65.1723 57.1515C63.6843 57.1515 62.3283 56.9235 61.1043 56.4675C59.9043 55.9875 58.8723 55.3275 58.0083 54.4875C57.1443 53.6235 56.4723 52.6035 55.9923 51.4275C55.5123 50.2515 55.2723 48.9435 55.2723 47.5035C55.2723 46.0155 55.5243 44.6595 56.0283 43.4355C56.5323 42.1875 57.2403 41.1195 58.1523 40.2315C59.0883 39.3195 60.1803 38.6115 61.4283 38.1075C62.7003 37.6035 64.0923 37.3515 65.6043 37.3515C68.1483 37.3515 70.1283 38.0355 71.5443 39.4035C72.9603 40.7715 73.6683 42.6915 73.6683 45.1635C73.6683 45.5475 73.6083 45.7875 73.4883 45.8835C73.3683 45.9555 73.0323 45.9915 72.4803 45.9915H60.8883C60.7923 46.2075 60.7443 46.6035 60.7443 47.1795C60.7443 49.5315 61.2483 51.3915 62.2563 52.7595C63.2883 54.1275 64.6803 54.8115 66.4323 54.8115C67.4403 54.8115 68.4363 54.5835 69.4203 54.1275C70.4283 53.6715 71.4003 53.0235 72.3363 52.1835L73.3443 53.4435ZM66.3603 43.9755C67.3203 43.9755 67.9323 43.9275 68.1963 43.8315C68.4843 43.7115 68.6283 43.4475 68.6283 43.0395C68.6283 41.9835 68.3283 41.1195 67.7283 40.4475C67.1283 39.7755 66.3723 39.4395 65.4603 39.4395C64.4283 39.4395 63.5043 39.8715 62.6883 40.7355C61.8963 41.5755 61.3803 42.6555 61.1403 43.9755H66.3603ZM85.7739 57.1515H83.0739L78.1419 42.3555C77.7579 41.2035 77.3139 40.3995 76.8099 39.9435C76.3059 39.4635 75.6339 39.1995 74.7939 39.1515V37.7115H85.0899V39.1515C84.2259 39.1755 83.6259 39.3075 83.2899 39.5475C82.9539 39.7635 82.7859 40.1475 82.7859 40.6995C82.7859 40.9635 82.8219 41.2515 82.8939 41.5635C82.9659 41.8755 83.0619 42.2355 83.1819 42.6435L85.4499 51.0675H85.5939L90.6339 37.7115H93.5859L97.3659 51.0675H97.5459L100.426 43.6155C100.666 43.0155 100.834 42.4995 100.93 42.0675C101.026 41.6115 101.074 41.2155 101.074 40.8795C101.074 40.2555 100.87 39.8115 100.462 39.5475C100.054 39.2835 99.5019 39.1515 98.8059 39.1515V37.7115H106.546V39.1515C106.114 39.1515 105.754 39.1995 105.466 39.2955C105.178 39.3915 104.89 39.6195 104.602 39.9795C104.314 40.3395 104.002 40.8915 103.666 41.6355C103.33 42.3795 102.91 43.3995 102.406 44.6955L97.4379 57.1515H94.5939L90.7779 44.3715H90.6339L85.7739 57.1515ZM130.844 57.1515C128.684 57.1515 126.728 56.8395 124.976 56.2155C123.248 55.5675 121.772 54.6555 120.548 53.4795C119.348 52.2795 118.412 50.8395 117.74 49.1595C117.092 47.4555 116.768 45.5475 116.768 43.4355C116.768 41.2515 117.116 39.2595 117.812 37.4595C118.532 35.6355 119.528 34.0755 120.8 32.7795C122.072 31.4835 123.596 30.4875 125.372 29.7915C127.148 29.0715 129.116 28.7115 131.276 28.7115C132.764 28.7115 134.18 28.9155 135.524 29.3235C136.868 29.7315 138.32 30.3915 139.88 31.3035L140.564 29.0715H141.86V38.1795H140.06C139.58 35.9235 138.608 34.1715 137.144 32.9235C135.704 31.6755 133.892 31.0515 131.708 31.0515C128.948 31.0515 126.8 32.1195 125.264 34.2555C123.752 36.3675 122.996 39.3315 122.996 43.1475C122.996 46.8915 123.74 49.7595 125.228 51.7515C126.716 53.7435 128.876 54.7395 131.708 54.7395C133.748 54.7395 135.332 54.2235 136.46 53.1915C137.612 52.1355 138.188 50.6835 138.188 48.8355C138.188 47.7315 137.9 46.9275 137.324 46.4235C136.748 45.8955 135.776 45.5715 134.408 45.4515V44.0115H146.072V45.4515C144.896 45.4515 144.08 45.7155 143.624 46.2435C143.168 46.7475 142.94 47.6715 142.94 49.0155V53.8035C142.412 53.8035 141.968 53.8275 141.608 53.8755C141.248 53.8995 140.888 53.9715 140.528 54.0915C140.192 54.1875 139.808 54.3555 139.376 54.5955C138.944 54.8355 138.404 55.1475 137.756 55.5315C135.908 56.6115 133.604 57.1515 130.844 57.1515ZM156.943 41.4555C158.479 41.4555 159.715 41.4075 160.651 41.3115C161.587 41.2155 162.307 41.0235 162.811 40.7355C163.339 40.4235 163.711 39.9795 163.927 39.4035C164.143 38.8275 164.311 38.0475 164.431 37.0635H165.763V47.6115H164.431C164.287 46.6515 164.095 45.8835 163.855 45.3075C163.615 44.7315 163.231 44.2995 162.703 44.0115C162.175 43.6995 161.455 43.5075 160.543 43.4355C159.655 43.3395 158.455 43.2915 156.943 43.2915V50.7075C156.943 51.4755 157.039 52.1235 157.231 52.6515C157.447 53.1795 157.795 53.6115 158.275 53.9475C158.755 54.2595 159.391 54.4875 160.183 54.6315C160.975 54.7515 161.947 54.8115 163.099 54.8115C164.467 54.8115 165.619 54.7155 166.555 54.5235C167.515 54.3315 168.307 53.9955 168.931 53.5155C169.555 53.0355 170.059 52.3995 170.443 51.6075C170.827 50.7915 171.151 49.7715 171.415 48.5475H172.855L172.279 56.7915H147.871V55.3515C148.663 55.3275 149.311 55.2555 149.815 55.1355C150.319 55.0155 150.703 54.8115 150.967 54.5235C151.231 54.2355 151.411 53.8275 151.507 53.2995C151.603 52.7715 151.651 52.0875 151.651 51.2475V34.6155C151.651 33.7755 151.603 33.1035 151.507 32.5995C151.435 32.0715 151.279 31.6635 151.039 31.3755C150.799 31.0635 150.451 30.8595 149.995 30.7635C149.563 30.6435 148.987 30.5595 148.267 30.5115V29.0715H171.019L171.271 36.1275H169.723C169.579 35.1195 169.351 34.2915 169.039 33.6435C168.727 32.9715 168.295 32.4435 167.743 32.0595C167.191 31.6515 166.471 31.3755 165.583 31.2315C164.719 31.0635 163.651 30.9795 162.379 30.9795H158.311C157.687 30.9795 157.303 31.0635 157.159 31.2315C157.015 31.3755 156.943 31.7355 156.943 32.3115V41.4555ZM198.224 57.1515L182.276 34.4355H182.132V49.9155C182.132 51.1155 182.168 52.0635 182.24 52.7595C182.336 53.4555 182.516 53.9955 182.78 54.3795C183.068 54.7635 183.452 55.0155 183.932 55.1355C184.436 55.2555 185.084 55.3275 185.876 55.3515V56.7915H175.184V55.3515C176.072 55.3275 176.78 55.2555 177.308 55.1355C177.86 54.9915 178.28 54.7395 178.568 54.3795C178.88 54.0195 179.084 53.5155 179.18 52.8675C179.276 52.1955 179.324 51.2955 179.324 50.1675V35.6955C179.324 34.6875 179.276 33.8595 179.18 33.2115C179.084 32.5395 178.904 32.0115 178.64 31.6275C178.376 31.2435 177.992 30.9795 177.488 30.8355C177.008 30.6675 176.36 30.5595 175.544 30.5115V29.0715H185.588L200.096 49.8795H200.24V35.9475C200.24 34.7715 200.192 33.8355 200.096 33.1395C200.024 32.4195 199.844 31.8675 199.556 31.4835C199.292 31.0995 198.908 30.8475 198.404 30.7275C197.924 30.6075 197.288 30.5355 196.496 30.5115V29.0715H207.188V30.5115C206.3 30.5355 205.58 30.6195 205.028 30.7635C204.5 30.8835 204.08 31.1235 203.768 31.4835C203.48 31.8435 203.288 32.3595 203.192 33.0315C203.096 33.7035 203.048 34.5915 203.048 35.6955V57.1515H198.224ZM219.465 47.6115H220.869C221.205 49.8915 222.118 51.6915 223.606 53.0115C225.093 54.3075 226.93 54.9555 229.114 54.9555C230.002 54.9555 230.818 54.8475 231.562 54.6315C232.306 54.4155 232.942 54.1155 233.47 53.7315C233.998 53.3235 234.406 52.8555 234.694 52.3275C234.982 51.7755 235.126 51.1635 235.126 50.4915C235.126 49.9155 235.03 49.4235 234.838 49.0155C234.67 48.5835 234.334 48.1755 233.829 47.7915C233.326 47.3835 232.63 46.9755 231.742 46.5675C230.878 46.1595 229.75 45.6915 228.358 45.1635C225.55 44.0835 223.474 42.8355 222.129 41.4195C220.785 39.9795 220.113 38.2875 220.113 36.3435C220.113 35.2155 220.329 34.1835 220.761 33.2475C221.193 32.3115 221.793 31.5075 222.561 30.8355C223.353 30.1635 224.289 29.6475 225.369 29.2875C226.473 28.9035 227.685 28.7115 229.005 28.7115C230.229 28.7115 231.382 28.9035 232.462 29.2875C233.542 29.6715 234.609 30.2475 235.665 31.0155L236.314 29.2155H237.177L237.574 36.9915H236.169C235.594 35.0235 234.694 33.5235 233.47 32.4915C232.246 31.4355 230.83 30.9075 229.222 30.9075C227.734 30.9075 226.521 31.2795 225.585 32.0235C224.673 32.7435 224.217 33.6795 224.217 34.8315C224.217 35.3355 224.301 35.7915 224.469 36.1995C224.637 36.5835 224.949 36.9555 225.406 37.3155C225.861 37.6755 226.486 38.0475 227.278 38.4315C228.07 38.7915 229.09 39.1995 230.337 39.6555C232.018 40.3035 233.446 40.9635 234.622 41.6355C235.822 42.2835 236.794 42.9915 237.538 43.7595C238.306 44.5035 238.87 45.2955 239.23 46.1355C239.59 46.9755 239.77 47.8995 239.77 48.9075C239.77 50.1315 239.506 51.2475 238.978 52.2555C238.449 53.2635 237.706 54.1275 236.746 54.8475C235.81 55.5675 234.682 56.1315 233.362 56.5395C232.066 56.9475 230.626 57.1515 229.042 57.1515C227.602 57.1515 226.306 56.9595 225.154 56.5755C224.001 56.1675 222.813 55.5195 221.589 54.6315L220.869 56.7915H220.005L219.465 47.6115ZM260.401 53.8035C259.489 54.8115 258.349 55.5915 256.981 56.1435C255.637 56.6955 254.173 56.9715 252.589 56.9715C251.125 56.9715 249.793 56.7435 248.593 56.2875C247.393 55.8075 246.361 55.1475 245.497 54.3075C244.633 53.4675 243.961 52.4595 243.481 51.2835C243.025 50.0835 242.797 48.7635 242.797 47.3235C242.797 45.8355 243.049 44.4795 243.553 43.2555C244.057 42.0315 244.765 40.9875 245.677 40.1235C246.589 39.2355 247.681 38.5515 248.953 38.0715C250.225 37.5915 251.629 37.3515 253.165 37.3515C254.245 37.3515 255.241 37.4595 256.153 37.6755C257.089 37.8915 257.881 38.1915 258.529 38.5755C259.201 38.9595 259.729 39.4155 260.113 39.9435C260.497 40.4475 260.689 40.9995 260.689 41.5995C260.689 42.2955 260.485 42.8475 260.077 43.2555C259.693 43.6635 259.165 43.8675 258.493 43.8675C257.941 43.8675 257.449 43.7235 257.017 43.4355C256.609 43.1475 256.201 42.6795 255.793 42.0315C255.433 41.4555 255.121 40.9995 254.857 40.6635C254.617 40.3275 254.389 40.0755 254.173 39.9075C253.957 39.7155 253.741 39.5955 253.525 39.5475C253.309 39.4755 253.045 39.4395 252.733 39.4395C251.341 39.4395 250.261 40.0875 249.493 41.3835C248.725 42.6795 248.341 44.4915 248.341 46.8195C248.341 49.3155 248.797 51.2355 249.709 52.5795C250.645 53.9235 251.977 54.5955 253.705 54.5955C254.689 54.5955 255.673 54.4155 256.657 54.0555C257.641 53.6715 258.577 53.1315 259.465 52.4355L260.401 53.8035ZM274.097 46.5315C272.081 47.4435 270.557 48.2955 269.525 49.0875C268.517 49.8555 268.013 50.6595 268.013 51.4995C268.013 52.1955 268.205 52.7475 268.589 53.1555C268.973 53.5635 269.453 53.7675 270.029 53.7675C270.605 53.7675 271.145 53.6715 271.649 53.4795C272.153 53.2635 272.585 52.9875 272.945 52.6515C273.305 52.3155 273.581 51.9195 273.773 51.4635C273.989 50.9835 274.097 50.4795 274.097 49.9515V46.5315ZM274.097 44.6235V43.1115C274.097 41.7195 273.845 40.7115 273.341 40.0875C272.861 39.4395 272.105 39.1155 271.073 39.1155C270.377 39.1155 269.849 39.3075 269.489 39.6915C269.129 40.0515 268.793 40.6635 268.481 41.5275C268.265 42.1275 267.953 42.5955 267.545 42.9315C267.161 43.2675 266.621 43.4355 265.925 43.4355C265.253 43.4355 264.737 43.2315 264.377 42.8235C264.017 42.4155 263.837 41.8395 263.837 41.0955C263.837 39.9435 264.461 39.0315 265.709 38.3595C266.981 37.6875 268.889 37.3515 271.433 37.3515C274.121 37.3515 276.041 37.8435 277.193 38.8275C278.345 39.7875 278.921 41.4075 278.921 43.6875V51.5715C278.921 53.6115 279.329 54.6315 280.145 54.6315C280.601 54.6315 281.021 54.4755 281.405 54.1635L281.945 55.2075C281.609 55.8075 281.081 56.2875 280.361 56.6475C279.665 56.9835 278.873 57.1515 277.985 57.1515C276.881 57.1515 276.041 56.8155 275.465 56.1435C274.889 55.4715 274.601 54.5235 274.601 53.2995H274.421C273.725 54.5475 272.825 55.4955 271.721 56.1435C270.617 56.7915 269.357 57.1155 267.941 57.1155C266.429 57.1155 265.217 56.6955 264.305 55.8555C263.393 54.9915 262.937 53.8755 262.937 52.5075C262.937 51.4515 263.405 50.4675 264.341 49.5555C265.277 48.6195 266.837 47.7075 269.021 46.8195L274.097 44.6235ZM299.701 54.4875H299.557C297.901 56.2635 295.753 57.1515 293.113 57.1515C291.745 57.1515 290.485 56.9115 289.333 56.4315C288.205 55.9515 287.221 55.2795 286.381 54.4155C285.565 53.5515 284.929 52.5315 284.473 51.3555C284.017 50.1555 283.789 48.8355 283.789 47.3955C283.789 45.9555 284.017 44.6235 284.473 43.3995C284.953 42.1755 285.589 41.1195 286.381 40.2315C287.197 39.3195 288.157 38.6115 289.261 38.1075C290.389 37.6035 291.601 37.3515 292.897 37.3515C294.097 37.3515 295.153 37.5315 296.065 37.8915C297.001 38.2515 297.817 38.8635 298.513 39.7275H298.657V36.6675C298.657 35.2515 298.633 34.0395 298.585 33.0315C298.561 31.9995 298.513 31.3275 298.441 31.0155C298.321 30.5115 297.949 30.1515 297.325 29.9355C296.725 29.6955 295.789 29.5755 294.517 29.5755V28.3515L303.625 26.9115V47.5035C303.625 49.3035 303.637 50.6955 303.661 51.6795C303.709 52.6395 303.781 53.3715 303.877 53.8755C303.925 54.1875 303.997 54.4395 304.093 54.6315C304.189 54.8235 304.333 54.9795 304.525 55.0995C304.717 55.1955 304.969 55.2675 305.281 55.3155C305.617 55.3395 306.037 55.3515 306.541 55.3515V56.7555L299.701 57.1515V54.4875ZM298.585 46.4595C298.585 45.5475 298.489 44.7075 298.297 43.9395C298.105 43.1475 297.817 42.4515 297.433 41.8515C297.001 41.1555 296.449 40.6275 295.777 40.2675C295.105 39.9075 294.385 39.7275 293.617 39.7275C292.201 39.7275 291.121 40.3755 290.377 41.6715C289.633 42.9675 289.261 44.8515 289.261 47.3235C289.261 49.8195 289.633 51.7395 290.377 53.0835C291.121 54.4275 292.189 55.0995 293.581 55.0995C294.373 55.0995 295.129 54.8955 295.849 54.4875C296.569 54.0795 297.157 53.5275 297.613 52.8315C297.949 52.3035 298.189 51.6555 298.333 50.8875C298.501 50.0955 298.585 49.0875 298.585 47.8635V46.4595ZM319.765 46.5315C317.749 47.4435 316.225 48.2955 315.193 49.0875C314.185 49.8555 313.681 50.6595 313.681 51.4995C313.681 52.1955 313.873 52.7475 314.257 53.1555C314.641 53.5635 315.121 53.7675 315.697 53.7675C316.273 53.7675 316.813 53.6715 317.317 53.4795C317.821 53.2635 318.253 52.9875 318.613 52.6515C318.973 52.3155 319.249 51.9195 319.441 51.4635C319.657 50.9835 319.765 50.4795 319.765 49.9515V46.5315ZM319.765 44.6235V43.1115C319.765 41.7195 319.513 40.7115 319.009 40.0875C318.529 39.4395 317.773 39.1155 316.741 39.1155C316.045 39.1155 315.517 39.3075 315.157 39.6915C314.797 40.0515 314.461 40.6635 314.149 41.5275C313.933 42.1275 313.621 42.5955 313.213 42.9315C312.829 43.2675 312.289 43.4355 311.593 43.4355C310.921 43.4355 310.405 43.2315 310.045 42.8235C309.685 42.4155 309.505 41.8395 309.505 41.0955C309.505 39.9435 310.129 39.0315 311.377 38.3595C312.649 37.6875 314.557 37.3515 317.101 37.3515C319.789 37.3515 321.709 37.8435 322.861 38.8275C324.013 39.7875 324.589 41.4075 324.589 43.6875V51.5715C324.589 53.6115 324.997 54.6315 325.813 54.6315C326.269 54.6315 326.689 54.4755 327.073 54.1635L327.613 55.2075C327.277 55.8075 326.749 56.2875 326.029 56.6475C325.333 56.9835 324.541 57.1515 323.653 57.1515C322.549 57.1515 321.709 56.8155 321.133 56.1435C320.557 55.4715 320.269 54.5235 320.269 53.2995H320.089C319.393 54.5475 318.493 55.4955 317.389 56.1435C316.285 56.7915 315.025 57.1155 313.609 57.1155C312.097 57.1155 310.885 56.6955 309.973 55.8555C309.061 54.9915 308.605 53.8755 308.605 52.5075C308.605 51.4515 309.073 50.4675 310.009 49.5555C310.945 48.6195 312.505 47.7075 314.689 46.8195L319.765 44.6235Z" fill="#C9F0C2"/>
<defs>
<linearGradient id="paint0_linear_7_2240" x1="1920.01" y1="44.7314" x2="0.746814" y2="44.0697" gradientUnits="userSpaceOnUse">
<stop offset="0.0208333" stop-color="#D4B930" stop-opacity="0.3"/>
<stop offset="0.213542" stop-color="#D4B930" stop-opacity="0.15"/>
<stop offset="0.71875" stop-color="#D4B930" stop-opacity="0.15"/>
<stop offset="0.932292" stop-color="#D4B930" stop-opacity="0.3"/>
</linearGradient>
</defs>
</svg>
