<svg width="1921" height="1020" viewBox="0 0 1921 1020" fill="none" xmlns="http://www.w3.org/2000/svg">
<rect width="1920" height="1020" fill="#171612"/>
<rect y="84" width="1920" height="4" fill="#AF6C3B"/>
<rect x="1920.05" y="0.891846" width="82.4369" height="1919.32" transform="rotate(90.0209 1920.05 0.891846)" fill="url(#paint0_linear_7_2240)"/>
<path d="M623.176 60L610.6 31.104H610.408L604.936 51.936C604.744 52.704 604.648 53.392 604.648 54C604.648 55.344 605.048 56.352 605.848 57.024C606.648 57.696 607.768 58.048 609.208 58.08L608.632 60H594.904L595.432 58.08C596.936 58.08 598.28 57.552 599.464 56.496C600.648 55.408 601.464 54.048 601.912 52.416L607.576 31.104C607.704 30.624 607.768 30.128 607.768 29.616C607.768 28.08 607.112 26.928 605.8 26.16C604.52 25.392 602.824 24.992 600.712 24.96L601.288 23.04H612.568L624.568 50.544H624.76L629.848 31.104C630.008 30.4 630.088 29.808 630.088 29.328C630.088 27.952 629.688 26.896 628.888 26.16C628.12 25.392 627.176 24.992 626.056 24.96L626.632 23.04H638.92L638.392 24.96C637.784 24.96 637.192 25.104 636.616 25.392C636.04 25.68 635.512 26.08 635.032 26.592C634.552 27.072 634.12 27.664 633.736 28.368C633.384 29.072 633.096 29.824 632.872 30.624L625.096 60H623.176ZM651.581 53.616C648.797 58.192 645.373 60.48 641.309 60.48C639.101 60.48 637.405 59.808 636.221 58.464C635.037 57.088 634.445 55.152 634.445 52.656C634.445 50.448 634.893 48.24 635.789 46.032C636.717 43.824 637.917 41.84 639.389 40.08C640.861 38.288 642.509 36.848 644.333 35.76C646.157 34.64 647.981 34.08 649.805 34.08C651.341 34.08 652.589 34.48 653.549 35.28C654.541 36.048 655.037 37.04 655.037 38.256C655.037 39.376 654.621 40.528 653.789 41.712C652.957 42.896 651.821 44.016 650.381 45.072C648.973 46.128 647.309 47.088 645.389 47.952C643.501 48.816 641.485 49.488 639.341 49.968C639.277 50.416 639.229 50.864 639.197 51.312C639.165 51.728 639.149 52.16 639.149 52.608C639.149 56.096 640.381 57.84 642.845 57.84C644.029 57.84 645.245 57.376 646.493 56.448C647.773 55.52 648.957 54.24 650.045 52.608L651.581 53.616ZM648.845 36.336C648.013 36.336 647.149 36.656 646.253 37.296C645.357 37.936 644.493 38.8 643.661 39.888C642.861 40.944 642.125 42.16 641.453 43.536C640.781 44.912 640.237 46.336 639.821 47.808C641.357 47.392 642.781 46.848 644.093 46.176C645.405 45.504 646.525 44.752 647.453 43.92C648.413 43.056 649.165 42.16 649.709 41.232C650.253 40.272 650.525 39.312 650.525 38.352C650.525 37.008 649.965 36.336 648.845 36.336ZM675.2 55.344C673.76 57.008 672.256 58.288 670.688 59.184C669.12 60.048 667.552 60.48 665.984 60.48C664.224 60.48 662.848 59.92 661.856 58.8C660.864 57.648 660.368 56.048 660.368 54C660.368 50 662.432 45.216 666.56 39.648L666.464 39.504C665.6 39.504 664.88 39.376 664.304 39.12C663.728 38.864 663.232 38.576 662.816 38.256C662.432 37.936 662.08 37.648 661.76 37.392C661.472 37.136 661.152 37.008 660.8 37.008C660.288 37.008 660.032 37.28 660.032 37.824C660.032 38.112 660.112 38.368 660.272 38.592C660.464 38.816 660.656 39.04 660.848 39.264C661.072 39.488 661.264 39.744 661.424 40.032C661.616 40.288 661.712 40.608 661.712 40.992C661.712 41.568 661.488 42.048 661.04 42.432C660.592 42.784 660.016 42.96 659.312 42.96C658.48 42.96 657.84 42.704 657.392 42.192C656.944 41.68 656.72 40.96 656.72 40.032C656.72 39.264 656.88 38.528 657.2 37.824C657.52 37.088 657.952 36.448 658.496 35.904C659.04 35.328 659.664 34.88 660.368 34.56C661.104 34.24 661.856 34.08 662.624 34.08C663.296 34.08 663.856 34.192 664.304 34.416C664.752 34.608 665.168 34.848 665.552 35.136C665.936 35.392 666.304 35.632 666.656 35.856C667.04 36.048 667.472 36.144 667.952 36.144C668.208 36.144 668.432 36.096 668.624 36C668.848 35.904 669.104 35.712 669.392 35.424C669.744 35.072 670.096 34.768 670.448 34.512C670.8 34.224 671.2 34.08 671.648 34.08C672.32 34.08 672.656 34.4 672.656 35.04C672.656 35.136 672.64 35.248 672.608 35.376C672.576 35.472 672.48 35.616 672.32 35.808C672.192 36 672 36.256 671.744 36.576C671.488 36.864 671.136 37.264 670.688 37.776C669.76 38.864 668.928 40.016 668.192 41.232C667.488 42.448 666.896 43.68 666.416 44.928C665.936 46.144 665.568 47.36 665.312 48.576C665.056 49.76 664.928 50.88 664.928 51.936C664.928 53.504 665.184 54.736 665.696 55.632C666.208 56.496 666.928 56.928 667.856 56.928C668.72 56.928 669.728 56.512 670.88 55.68C672.032 54.816 673.264 53.616 674.576 52.08C674.512 51.408 674.448 50.72 674.384 50.016C674.352 49.312 674.336 48.672 674.336 48.096C674.336 46.368 674.528 44.672 674.912 43.008C675.328 41.312 675.856 39.808 676.496 38.496C677.136 37.152 677.872 36.08 678.704 35.28C679.536 34.48 680.384 34.08 681.248 34.08C681.952 34.08 682.576 34.384 683.12 34.992C683.696 35.6 683.984 36.624 683.984 38.064C683.984 39.792 683.52 41.792 682.592 44.064C681.664 46.336 680.32 48.72 678.56 51.216C678.848 52.752 679.376 54 680.144 54.96C680.944 55.92 681.808 56.4 682.736 56.4C683.632 56.4 684.544 55.984 685.472 55.152C686.4 54.32 687.248 53.264 688.016 51.984C688.784 50.672 689.408 49.232 689.888 47.664C690.4 46.064 690.656 44.512 690.656 43.008C690.656 42.272 690.592 41.632 690.464 41.088C690.368 40.544 690.24 40.048 690.08 39.6C689.952 39.12 689.824 38.672 689.696 38.256C689.6 37.808 689.552 37.328 689.552 36.816C689.552 34.992 690.384 34.08 692.048 34.08C693.04 34.08 693.744 34.448 694.16 35.184C694.608 35.92 694.832 37.152 694.832 38.88C694.832 41.44 694.416 44.016 693.584 46.608C692.752 49.168 691.664 51.488 690.32 53.568C689.008 55.616 687.52 57.28 685.856 58.56C684.192 59.84 682.528 60.48 680.864 60.48C679.52 60.48 678.368 60.048 677.408 59.184C676.448 58.32 675.712 57.04 675.2 55.344ZM677.888 48.144C678.72 46.768 679.392 45.392 679.904 44.016C680.448 42.64 680.72 41.248 680.72 39.84C680.72 38.624 680.48 38.016 680 38.016C679.68 38.016 679.376 38.224 679.088 38.64C678.8 39.056 678.544 39.616 678.32 40.32C678.128 41.024 677.968 41.856 677.84 42.816C677.712 43.744 677.648 44.736 677.648 45.792C677.648 46.24 677.664 46.656 677.696 47.04C677.728 47.424 677.792 47.792 677.888 48.144ZM728.24 57.888C729.584 57.888 730.816 57.712 731.936 57.36C733.088 56.976 734.08 56.432 734.912 55.728C735.776 54.992 736.432 54.096 736.88 53.04C737.36 51.984 737.6 50.752 737.6 49.344C737.6 48.064 737.312 47.12 736.736 46.512C736.192 45.904 735.12 45.6 733.52 45.6L733.952 43.728H747.104L746.624 45.6C745.952 45.6 745.376 45.648 744.896 45.744C744.448 45.84 744.048 46.112 743.696 46.56C743.344 46.976 743.008 47.616 742.688 48.48C742.368 49.344 742.016 50.528 741.632 52.032C741.376 52.96 741.136 53.904 740.912 54.864C740.688 55.792 740.56 56.72 740.528 57.648C739.792 57.776 739.008 58 738.176 58.32C737.376 58.608 736.448 58.912 735.392 59.232C734.368 59.552 733.184 59.84 731.84 60.096C730.496 60.352 728.944 60.48 727.184 60.48C725.008 60.48 723.056 60.144 721.328 59.472C719.6 58.768 718.128 57.776 716.912 56.496C715.728 55.184 714.8 53.616 714.128 51.792C713.488 49.936 713.168 47.856 713.168 45.552C713.168 42.512 713.744 39.616 714.896 36.864C716.08 34.08 717.648 31.632 719.6 29.52C721.584 27.408 723.856 25.728 726.416 24.48C729.008 23.2 731.712 22.56 734.528 22.56C736.256 22.56 737.888 22.8 739.424 23.28C740.992 23.728 742.56 24.448 744.128 25.44L745.904 23.04H747.68L745.952 33.6H744.128C743.808 30.656 742.912 28.496 741.44 27.12C740 25.744 737.824 25.056 734.912 25.056C732.672 25.056 730.576 25.584 728.624 26.64C726.704 27.696 725.024 29.152 723.584 31.008C722.144 32.864 721.008 35.04 720.176 37.536C719.376 40.032 718.976 42.72 718.976 45.6C718.976 53.792 722.064 57.888 728.24 57.888ZM747.757 58.08C748.813 58.08 749.677 58 750.349 57.84C751.053 57.68 751.629 57.392 752.077 56.976C752.557 56.528 752.957 55.952 753.277 55.248C753.597 54.512 753.901 53.568 754.189 52.416L759.757 31.248C759.981 30.416 760.141 29.696 760.237 29.088C760.365 28.48 760.429 27.952 760.429 27.504C760.429 26.448 760.061 25.76 759.325 25.44C758.589 25.12 757.357 24.96 755.629 24.96L756.157 23.04H782.365V32.736H780.541C780.125 31.2 779.661 29.952 779.149 28.992C778.637 28 778.045 27.232 777.373 26.688C776.733 26.112 775.997 25.712 775.165 25.488C774.365 25.264 773.469 25.152 772.477 25.152H766.237L762.493 39.408H765.517C766.381 39.408 767.117 39.328 767.725 39.168C768.333 39.008 768.877 38.736 769.357 38.352C769.869 37.936 770.333 37.376 770.749 36.672C771.197 35.968 771.677 35.056 772.189 33.936H773.965L771.085 48.144H769.165C769.261 47.184 769.309 46.352 769.309 45.648C769.309 44.208 769.037 43.168 768.493 42.528C767.949 41.856 766.941 41.52 765.469 41.52H761.869L759.133 51.84C758.845 52.896 758.701 53.792 758.701 54.528C758.701 55.68 759.213 56.544 760.237 57.12C761.261 57.664 763.021 57.936 765.517 57.936C767.341 57.936 768.925 57.792 770.269 57.504C771.645 57.216 772.829 56.768 773.821 56.16C774.845 55.52 775.725 54.688 776.461 53.664C777.229 52.64 777.949 51.376 778.621 49.872H780.877L777.133 60H747.229L747.757 58.08ZM811.848 60L799.272 31.104H799.08L793.608 51.936C793.416 52.704 793.32 53.392 793.32 54C793.32 55.344 793.72 56.352 794.52 57.024C795.32 57.696 796.44 58.048 797.88 58.08L797.304 60H783.576L784.104 58.08C785.608 58.08 786.952 57.552 788.136 56.496C789.32 55.408 790.136 54.048 790.584 52.416L796.248 31.104C796.376 30.624 796.44 30.128 796.44 29.616C796.44 28.08 795.784 26.928 794.472 26.16C793.192 25.392 791.496 24.992 789.384 24.96L789.96 23.04H801.24L813.24 50.544H813.432L818.52 31.104C818.68 30.4 818.76 29.808 818.76 29.328C818.76 27.952 818.36 26.896 817.56 26.16C816.792 25.392 815.848 24.992 814.728 24.96L815.304 23.04H827.592L827.064 24.96C826.456 24.96 825.864 25.104 825.288 25.392C824.712 25.68 824.184 26.08 823.704 26.592C823.224 27.072 822.792 27.664 822.408 28.368C822.056 29.072 821.768 29.824 821.544 30.624L813.768 60H811.848ZM864.417 23.76H865.857L863.841 33.216H862.209C862.113 30.304 861.585 28.208 860.625 26.928C859.665 25.648 858.161 25.008 856.113 25.008C855.121 25.008 854.209 25.152 853.377 25.44C852.545 25.696 851.825 26.08 851.217 26.592C850.641 27.104 850.177 27.712 849.825 28.416C849.505 29.088 849.345 29.824 849.345 30.624C849.345 31.776 849.665 32.8 850.305 33.696C850.945 34.592 851.745 35.44 852.705 36.24C853.697 37.008 854.753 37.792 855.873 38.592C857.025 39.392 858.081 40.272 859.041 41.232C860.033 42.192 860.849 43.28 861.489 44.496C862.129 45.712 862.449 47.136 862.449 48.768C862.449 50.4 862.129 51.936 861.489 53.376C860.849 54.784 859.969 56.016 858.849 57.072C857.761 58.128 856.481 58.96 855.009 59.568C853.537 60.176 851.953 60.48 850.257 60.48C846.769 60.48 843.713 59.104 841.089 56.352L840.081 60H838.401L840.417 47.808H842.001C842.225 51.104 843.041 53.616 844.449 55.344C845.857 57.072 847.809 57.936 850.305 57.936C851.457 57.936 852.513 57.776 853.473 57.456C854.433 57.104 855.249 56.64 855.921 56.064C856.625 55.456 857.169 54.752 857.553 53.952C857.969 53.12 858.177 52.224 858.177 51.264C858.177 49.92 857.841 48.736 857.169 47.712C856.497 46.688 855.665 45.728 854.673 44.832C853.681 43.936 852.593 43.072 851.409 42.24C850.225 41.408 849.137 40.528 848.145 39.6C847.153 38.64 846.321 37.6 845.649 36.48C844.977 35.328 844.641 34.016 844.641 32.544C844.641 31.168 844.929 29.872 845.505 28.656C846.113 27.44 846.929 26.384 847.953 25.488C848.977 24.592 850.177 23.888 851.553 23.376C852.929 22.832 854.401 22.56 855.969 22.56C857.473 22.56 858.817 22.816 860.001 23.328C861.185 23.84 862.337 24.656 863.457 25.776L864.417 23.76ZM883.943 52.272C882.599 54.928 881.031 56.96 879.239 58.368C877.479 59.776 875.591 60.48 873.575 60.48C871.495 60.48 869.831 59.776 868.583 58.368C867.335 56.928 866.711 55.024 866.711 52.656C866.711 51.248 866.919 49.808 867.335 48.336C867.751 46.864 868.311 45.44 869.015 44.064C869.719 42.688 870.551 41.392 871.511 40.176C872.471 38.96 873.495 37.904 874.583 37.008C875.671 36.112 876.791 35.408 877.943 34.896C879.127 34.352 880.279 34.08 881.399 34.08C882.935 34.08 884.199 34.496 885.191 35.328C886.183 36.16 886.679 37.2 886.679 38.448C886.679 39.248 886.439 39.904 885.959 40.416C885.511 40.896 884.919 41.136 884.183 41.136C883.447 41.136 882.839 40.912 882.359 40.464C881.911 39.984 881.687 39.408 881.687 38.736C881.687 38.32 881.751 37.984 881.879 37.728C882.007 37.472 882.071 37.232 882.071 37.008C882.071 36.56 881.687 36.336 880.919 36.336C879.863 36.336 878.791 36.832 877.703 37.824C876.615 38.816 875.623 40.096 874.727 41.664C873.863 43.232 873.143 44.992 872.567 46.944C872.023 48.864 871.751 50.784 871.751 52.704C871.751 54.24 872.039 55.456 872.615 56.352C873.223 57.216 874.055 57.648 875.111 57.648C875.687 57.648 876.279 57.488 876.887 57.168C877.527 56.848 878.167 56.416 878.807 55.872C879.447 55.296 880.055 54.624 880.631 53.856C881.239 53.088 881.783 52.24 882.263 51.312L883.943 52.272ZM903.163 36.576C901.947 36.576 900.683 37.136 899.371 38.256C898.091 39.376 896.923 40.784 895.867 42.48C894.811 44.144 893.947 45.952 893.275 47.904C892.603 49.824 892.267 51.616 892.267 53.28C892.267 54.432 892.507 55.36 892.987 56.064C893.467 56.736 894.123 57.072 894.955 57.072C895.691 57.072 896.459 56.784 897.259 56.208C898.059 55.6 898.827 54.816 899.563 53.856C900.331 52.864 901.051 51.744 901.723 50.496C902.395 49.248 902.987 47.968 903.499 46.656C904.011 45.312 904.411 44 904.699 42.72C904.987 41.44 905.131 40.288 905.131 39.264C905.131 38.432 904.955 37.776 904.603 37.296C904.251 36.816 903.771 36.576 903.163 36.576ZM908.107 34.56H912.091L909.355 41.904C908.907 43.12 908.459 44.416 908.011 45.792C907.595 47.168 907.211 48.496 906.859 49.776C906.539 51.056 906.283 52.224 906.091 53.28C905.899 54.336 905.803 55.12 905.803 55.632C905.803 56.56 906.107 57.024 906.715 57.024C907.163 57.024 907.803 56.56 908.635 55.632C909.499 54.704 910.459 53.504 911.515 52.032L912.763 53.04C911.419 55.408 909.963 57.248 908.395 58.56C906.859 59.84 905.371 60.48 903.931 60.48C903.195 60.48 902.619 60.208 902.203 59.664C901.819 59.088 901.627 58.16 901.627 56.88C901.627 56.592 901.627 56.256 901.627 55.872C901.659 55.488 901.707 54.976 901.771 54.336L901.579 54.288C901.099 55.184 900.523 56.016 899.851 56.784C899.211 57.52 898.507 58.176 897.739 58.752C896.971 59.296 896.171 59.712 895.339 60C894.507 60.32 893.691 60.48 892.891 60.48C891.259 60.48 889.979 59.872 889.051 58.656C888.155 57.408 887.707 55.696 887.707 53.52C887.707 51.312 888.171 49.056 889.099 46.752C890.027 44.448 891.227 42.368 892.699 40.512C894.171 38.624 895.803 37.088 897.595 35.904C899.387 34.688 901.147 34.08 902.875 34.08C903.931 34.08 904.795 34.336 905.467 34.848C906.139 35.328 906.683 36.128 907.099 37.248L908.107 34.56ZM937.066 26.784C937.322 25.92 937.514 25.2 937.642 24.624C937.77 24.048 937.834 23.632 937.834 23.376C937.834 22.896 937.514 22.56 936.874 22.368C936.234 22.176 935.082 22.08 933.418 22.08L933.946 20.16H943.21L937.882 39.6C937.21 42.096 936.65 44.224 936.202 45.984C935.754 47.744 935.386 49.232 935.098 50.448C934.842 51.632 934.666 52.608 934.57 53.376C934.474 54.144 934.426 54.784 934.426 55.296C934.426 56.032 934.538 56.544 934.762 56.832C934.986 57.12 935.274 57.264 935.626 57.264C936.33 57.264 937.082 56.672 937.882 55.488C938.714 54.304 939.45 52.752 940.09 50.832L941.914 51.264C940.826 54.432 939.626 56.768 938.314 58.272C937.034 59.744 935.578 60.48 933.946 60.48C932.794 60.48 931.898 60.112 931.258 59.376C930.65 58.64 930.346 57.584 930.346 56.208C930.346 55.856 930.378 55.488 930.442 55.104C930.506 54.72 930.586 54.352 930.682 54L930.298 53.904C929.082 56.016 927.61 57.648 925.882 58.8C924.154 59.92 922.506 60.48 920.938 60.48C920.106 60.48 919.338 60.304 918.634 59.952C917.93 59.568 917.322 59.056 916.81 58.416C916.298 57.744 915.882 56.96 915.562 56.064C915.274 55.136 915.13 54.112 915.13 52.992C915.13 51.616 915.338 50.192 915.754 48.72C916.202 47.216 916.794 45.776 917.53 44.4C918.298 42.992 919.178 41.664 920.17 40.416C921.162 39.168 922.202 38.08 923.29 37.152C924.41 36.192 925.546 35.44 926.698 34.896C927.882 34.352 929.034 34.08 930.154 34.08C931.242 34.08 932.058 34.288 932.602 34.704C933.178 35.12 933.738 35.776 934.282 36.672L937.066 26.784ZM930.49 36.624C929.658 36.624 928.81 36.896 927.946 37.44C927.114 37.952 926.298 38.656 925.498 39.552C924.698 40.416 923.946 41.424 923.242 42.576C922.57 43.728 921.978 44.928 921.466 46.176C920.954 47.424 920.538 48.688 920.218 49.968C919.93 51.248 919.786 52.448 919.786 53.568C919.786 54.72 920.074 55.648 920.65 56.352C921.226 57.024 921.994 57.36 922.954 57.36C923.69 57.36 924.442 57.072 925.21 56.496C925.978 55.888 926.73 55.104 927.466 54.144C928.202 53.184 928.89 52.096 929.53 50.88C930.202 49.632 930.778 48.368 931.258 47.088C931.77 45.776 932.17 44.496 932.458 43.248C932.746 41.968 932.89 40.816 932.89 39.792C932.89 38.8 932.698 38.032 932.314 37.488C931.93 36.912 931.322 36.624 930.49 36.624ZM959.225 36.576C958.009 36.576 956.745 37.136 955.433 38.256C954.153 39.376 952.985 40.784 951.929 42.48C950.873 44.144 950.009 45.952 949.337 47.904C948.665 49.824 948.329 51.616 948.329 53.28C948.329 54.432 948.569 55.36 949.049 56.064C949.529 56.736 950.185 57.072 951.017 57.072C951.753 57.072 952.521 56.784 953.321 56.208C954.121 55.6 954.889 54.816 955.625 53.856C956.393 52.864 957.113 51.744 957.785 50.496C958.457 49.248 959.049 47.968 959.561 46.656C960.073 45.312 960.473 44 960.761 42.72C961.049 41.44 961.193 40.288 961.193 39.264C961.193 38.432 961.017 37.776 960.665 37.296C960.313 36.816 959.833 36.576 959.225 36.576ZM964.169 34.56H968.153L965.417 41.904C964.969 43.12 964.521 44.416 964.073 45.792C963.657 47.168 963.273 48.496 962.921 49.776C962.601 51.056 962.345 52.224 962.153 53.28C961.961 54.336 961.865 55.12 961.865 55.632C961.865 56.56 962.169 57.024 962.777 57.024C963.225 57.024 963.865 56.56 964.697 55.632C965.561 54.704 966.521 53.504 967.577 52.032L968.825 53.04C967.481 55.408 966.025 57.248 964.457 58.56C962.921 59.84 961.433 60.48 959.993 60.48C959.257 60.48 958.681 60.208 958.265 59.664C957.881 59.088 957.689 58.16 957.689 56.88C957.689 56.592 957.689 56.256 957.689 55.872C957.721 55.488 957.769 54.976 957.833 54.336L957.641 54.288C957.161 55.184 956.585 56.016 955.913 56.784C955.273 57.52 954.569 58.176 953.801 58.752C953.033 59.296 952.233 59.712 951.401 60C950.569 60.32 949.753 60.48 948.953 60.48C947.321 60.48 946.041 59.872 945.113 58.656C944.217 57.408 943.769 55.696 943.769 53.52C943.769 51.312 944.233 49.056 945.161 46.752C946.089 44.448 947.289 42.368 948.761 40.512C950.233 38.624 951.865 37.088 953.657 35.904C955.449 34.688 957.209 34.08 958.937 34.08C959.993 34.08 960.857 34.336 961.529 34.848C962.201 35.328 962.745 36.128 963.161 37.248L964.169 34.56Z" fill="#D5B930"/>
<defs>
<linearGradient id="paint0_linear_7_2240" x1="1961.27" y1="0.891846" x2="1961.27" y2="1920.21" gradientUnits="userSpaceOnUse">
<stop stop-color="#635C39"/>
<stop offset="0.263542" stop-color="#827949" stop-opacity="0"/>
<stop offset="0.784375" stop-color="#766E44" stop-opacity="0"/>
<stop offset="1" stop-color="#67603E"/>
</linearGradient>
</defs>
</svg>
