<svg width="44" height="24" viewBox="0 0 44 24" fill="none" xmlns="http://www.w3.org/2000/svg">
<rect width="44" height="24" fill="#D4B930"/>
<rect x="1" y="1.02148" width="42" height="21.9574" fill="#171612"/>
<path d="M9.82422 13.1934H11.4355C11.3926 13.7637 11.2344 14.2695 10.9609 14.7109C10.6875 15.1484 10.3066 15.4922 9.81836 15.7422C9.33008 15.9922 8.73828 16.1172 8.04297 16.1172C7.50781 16.1172 7.02539 16.0234 6.5957 15.8359C6.16992 15.6445 5.80469 15.373 5.5 15.0215C5.19922 14.666 4.96875 14.2402 4.80859 13.7441C4.64844 13.2441 4.56836 12.6836 4.56836 12.0625V11.4121C4.56836 10.791 4.65039 10.2305 4.81445 9.73047C4.97852 9.23047 5.21289 8.80469 5.51758 8.45312C5.82617 8.09766 6.19531 7.82422 6.625 7.63281C7.05859 7.44141 7.54297 7.3457 8.07812 7.3457C8.77344 7.3457 9.36133 7.47461 9.8418 7.73242C10.3223 7.98633 10.6953 8.33594 10.9609 8.78125C11.2266 9.22656 11.3867 9.73828 11.4414 10.3164H9.83008C9.79883 9.95703 9.7207 9.65234 9.5957 9.40234C9.47461 9.15234 9.29102 8.96289 9.04492 8.83398C8.80273 8.70117 8.48047 8.63477 8.07812 8.63477C7.76562 8.63477 7.49023 8.69336 7.25195 8.81055C7.01758 8.92773 6.82227 9.10352 6.66602 9.33789C6.50977 9.56836 6.39258 9.85742 6.31445 10.2051C6.23633 10.5488 6.19727 10.9473 6.19727 11.4004V12.0625C6.19727 12.4961 6.23242 12.8848 6.30273 13.2285C6.37305 13.5723 6.48242 13.8633 6.63086 14.1016C6.7793 14.3398 6.9707 14.5215 7.20508 14.6465C7.43945 14.7715 7.71875 14.834 8.04297 14.834C8.4375 14.834 8.75781 14.7715 9.00391 14.6465C9.25391 14.5215 9.44336 14.3379 9.57227 14.0957C9.70508 13.8535 9.78906 13.5527 9.82422 13.1934ZM18.0977 14.7344V16H13.8086V14.7344H18.0977ZM14.2949 7.46875V16H12.6836V7.46875H14.2949ZM25.6973 11.5176V11.957C25.6973 12.6016 25.6113 13.1816 25.4395 13.6973C25.2676 14.209 25.0234 14.6445 24.707 15.0039C24.3906 15.3633 24.0137 15.6387 23.5762 15.8301C23.1387 16.0215 22.6523 16.1172 22.1172 16.1172C21.5898 16.1172 21.1055 16.0215 20.6641 15.8301C20.2266 15.6387 19.8477 15.3633 19.5273 15.0039C19.207 14.6445 18.959 14.209 18.7832 13.6973C18.6074 13.1816 18.5195 12.6016 18.5195 11.957V11.5176C18.5195 10.8691 18.6074 10.2891 18.7832 9.77734C18.959 9.26562 19.2051 8.83008 19.5215 8.4707C19.8379 8.10742 20.2148 7.83008 20.6523 7.63867C21.0938 7.44727 21.5781 7.35156 22.1055 7.35156C22.6406 7.35156 23.127 7.44727 23.5645 7.63867C24.002 7.83008 24.3789 8.10742 24.6953 8.4707C25.0156 8.83008 25.2617 9.26562 25.4336 9.77734C25.6094 10.2891 25.6973 10.8691 25.6973 11.5176ZM24.0684 11.957V11.5059C24.0684 11.041 24.0254 10.6328 23.9395 10.2812C23.8535 9.92578 23.7266 9.62695 23.5586 9.38477C23.3906 9.14258 23.1836 8.96094 22.9375 8.83984C22.6914 8.71484 22.4141 8.65234 22.1055 8.65234C21.793 8.65234 21.5156 8.71484 21.2734 8.83984C21.0352 8.96094 20.832 9.14258 20.6641 9.38477C20.4961 9.62695 20.3672 9.92578 20.2773 10.2812C20.1914 10.6328 20.1484 11.041 20.1484 11.5059V11.957C20.1484 12.418 20.1914 12.8262 20.2773 13.1816C20.3672 13.5371 20.4961 13.8379 20.6641 14.084C20.8359 14.3262 21.043 14.5098 21.2852 14.6348C21.5273 14.7598 21.8047 14.8223 22.1172 14.8223C22.4297 14.8223 22.707 14.7598 22.9492 14.6348C23.1914 14.5098 23.3945 14.3262 23.5586 14.084C23.7266 13.8379 23.8535 13.5371 23.9395 13.1816C24.0254 12.8262 24.0684 12.418 24.0684 11.957ZM31.5273 13.7852C31.5273 13.6211 31.502 13.4746 31.4512 13.3457C31.4043 13.2129 31.3164 13.0938 31.1875 12.9883C31.0625 12.8789 30.8848 12.7734 30.6543 12.6719C30.4277 12.5664 30.1348 12.457 29.7754 12.3438C29.377 12.2188 29.0059 12.0781 28.6621 11.9219C28.3184 11.7656 28.0156 11.584 27.7539 11.377C27.4961 11.1699 27.2949 10.9316 27.1504 10.6621C27.0059 10.3887 26.9336 10.0723 26.9336 9.71289C26.9336 9.36133 27.0078 9.04102 27.1562 8.75195C27.3086 8.46289 27.5234 8.21484 27.8008 8.00781C28.0781 7.79688 28.4043 7.63477 28.7793 7.52148C29.1582 7.4082 29.5762 7.35156 30.0332 7.35156C30.666 7.35156 31.2129 7.4668 31.6738 7.69727C32.1387 7.92773 32.498 8.24023 32.752 8.63477C33.0059 9.0293 33.1328 9.47266 33.1328 9.96484H31.5273C31.5273 9.69922 31.4707 9.46484 31.3574 9.26172C31.248 9.05859 31.0801 8.89844 30.8535 8.78125C30.6309 8.66406 30.3496 8.60547 30.0098 8.60547C29.6816 8.60547 29.4082 8.6543 29.1895 8.75195C28.9746 8.84961 28.8125 8.98242 28.7031 9.15039C28.5977 9.31836 28.5449 9.50586 28.5449 9.71289C28.5449 9.86914 28.582 10.0098 28.6562 10.1348C28.7305 10.2559 28.8418 10.3711 28.9902 10.4805C29.1387 10.5859 29.3223 10.6855 29.541 10.7793C29.7637 10.8691 30.0215 10.959 30.3145 11.0488C30.7832 11.1895 31.1934 11.3457 31.5449 11.5176C31.9004 11.6895 32.1953 11.8848 32.4297 12.1035C32.668 12.3223 32.8457 12.5684 32.9629 12.8418C33.084 13.1152 33.1445 13.4258 33.1445 13.7734C33.1445 14.1406 33.0723 14.4688 32.9277 14.7578C32.7832 15.0469 32.5762 15.293 32.3066 15.4961C32.0371 15.6992 31.7129 15.8535 31.334 15.959C30.959 16.0645 30.5391 16.1172 30.0742 16.1172C29.6602 16.1172 29.25 16.0625 28.8438 15.9531C28.4414 15.8398 28.0762 15.6719 27.748 15.4492C27.4199 15.2227 27.1582 14.9375 26.9629 14.5938C26.7676 14.2461 26.6699 13.8398 26.6699 13.375H28.2871C28.2871 13.6445 28.3301 13.875 28.416 14.0664C28.5059 14.2539 28.6309 14.4082 28.791 14.5293C28.9551 14.6465 29.1465 14.7324 29.3652 14.7871C29.584 14.8418 29.8203 14.8691 30.0742 14.8691C30.4023 14.8691 30.6719 14.8242 30.8828 14.7344C31.0977 14.6406 31.2578 14.5117 31.3633 14.3477C31.4727 14.1836 31.5273 13.9961 31.5273 13.7852ZM40.041 14.7344V16H35.5059V14.7344H40.041ZM35.998 7.46875V16H34.3867V7.46875H35.998ZM39.4492 10.9902V12.2266H35.5059V10.9902H39.4492ZM40.0234 7.46875V8.74023H35.5059V7.46875H40.0234Z" fill="#D4B930"/>
</svg>
