<svg width="44" height="24" viewBox="0 0 44 24" fill="none" xmlns="http://www.w3.org/2000/svg">
<rect width="44" height="24" fill="#D4B930"/>
<rect x="1" y="1.02124" width="42" height="21.9574" fill="#171612"/>
<path d="M9.80664 13.1934H11.418C11.375 13.7637 11.2168 14.2695 10.9434 14.7109C10.6699 15.1484 10.2891 15.4922 9.80078 15.7422C9.3125 15.9922 8.7207 16.1172 8.02539 16.1172C7.49023 16.1172 7.00781 16.0234 6.57812 15.8359C6.15234 15.6445 5.78711 15.373 5.48242 15.0215C5.18164 14.666 4.95117 14.2402 4.79102 13.7441C4.63086 13.2441 4.55078 12.6836 4.55078 12.0625V11.4121C4.55078 10.791 4.63281 10.2305 4.79688 9.73047C4.96094 9.23047 5.19531 8.80469 5.5 8.45312C5.80859 8.09766 6.17773 7.82422 6.60742 7.63281C7.04102 7.44141 7.52539 7.3457 8.06055 7.3457C8.75586 7.3457 9.34375 7.47461 9.82422 7.73242C10.3047 7.98633 10.6777 8.33594 10.9434 8.78125C11.209 9.22656 11.3691 9.73828 11.4238 10.3164H9.8125C9.78125 9.95703 9.70312 9.65234 9.57812 9.40234C9.45703 9.15234 9.27344 8.96289 9.02734 8.83398C8.78516 8.70117 8.46289 8.63477 8.06055 8.63477C7.74805 8.63477 7.47266 8.69336 7.23438 8.81055C7 8.92773 6.80469 9.10352 6.64844 9.33789C6.49219 9.56836 6.375 9.85742 6.29688 10.2051C6.21875 10.5488 6.17969 10.9473 6.17969 11.4004V12.0625C6.17969 12.4961 6.21484 12.8848 6.28516 13.2285C6.35547 13.5723 6.46484 13.8633 6.61328 14.1016C6.76172 14.3398 6.95312 14.5215 7.1875 14.6465C7.42188 14.7715 7.70117 14.834 8.02539 14.834C8.41992 14.834 8.74023 14.7715 8.98633 14.6465C9.23633 14.5215 9.42578 14.3379 9.55469 14.0957C9.6875 13.8535 9.77148 13.5527 9.80664 13.1934ZM18.0801 14.7344V16H13.791V14.7344H18.0801ZM14.2773 7.46875V16H12.666V7.46875H14.2773ZM25.6797 11.5176V11.957C25.6797 12.6016 25.5938 13.1816 25.4219 13.6973C25.25 14.209 25.0059 14.6445 24.6895 15.0039C24.373 15.3633 23.9961 15.6387 23.5586 15.8301C23.1211 16.0215 22.6348 16.1172 22.0996 16.1172C21.5723 16.1172 21.0879 16.0215 20.6465 15.8301C20.209 15.6387 19.8301 15.3633 19.5098 15.0039C19.1895 14.6445 18.9414 14.209 18.7656 13.6973C18.5898 13.1816 18.502 12.6016 18.502 11.957V11.5176C18.502 10.8691 18.5898 10.2891 18.7656 9.77734C18.9414 9.26562 19.1875 8.83008 19.5039 8.4707C19.8203 8.10742 20.1973 7.83008 20.6348 7.63867C21.0762 7.44727 21.5605 7.35156 22.0879 7.35156C22.623 7.35156 23.1094 7.44727 23.5469 7.63867C23.9844 7.83008 24.3613 8.10742 24.6777 8.4707C24.998 8.83008 25.2441 9.26562 25.416 9.77734C25.5918 10.2891 25.6797 10.8691 25.6797 11.5176ZM24.0508 11.957V11.5059C24.0508 11.041 24.0078 10.6328 23.9219 10.2812C23.8359 9.92578 23.709 9.62695 23.541 9.38477C23.373 9.14258 23.166 8.96094 22.9199 8.83984C22.6738 8.71484 22.3965 8.65234 22.0879 8.65234C21.7754 8.65234 21.498 8.71484 21.2559 8.83984C21.0176 8.96094 20.8145 9.14258 20.6465 9.38477C20.4785 9.62695 20.3496 9.92578 20.2598 10.2812C20.1738 10.6328 20.1309 11.041 20.1309 11.5059V11.957C20.1309 12.418 20.1738 12.8262 20.2598 13.1816C20.3496 13.5371 20.4785 13.8379 20.6465 14.084C20.8184 14.3262 21.0254 14.5098 21.2676 14.6348C21.5098 14.7598 21.7871 14.8223 22.0996 14.8223C22.4121 14.8223 22.6895 14.7598 22.9316 14.6348C23.1738 14.5098 23.377 14.3262 23.541 14.084C23.709 13.8379 23.8359 13.5371 23.9219 13.1816C24.0078 12.8262 24.0508 12.418 24.0508 11.957ZM31.5098 13.7852C31.5098 13.6211 31.4844 13.4746 31.4336 13.3457C31.3867 13.2129 31.2988 13.0938 31.1699 12.9883C31.0449 12.8789 30.8672 12.7734 30.6367 12.6719C30.4102 12.5664 30.1172 12.457 29.7578 12.3438C29.3594 12.2188 28.9883 12.0781 28.6445 11.9219C28.3008 11.7656 27.998 11.584 27.7363 11.377C27.4785 11.1699 27.2773 10.9316 27.1328 10.6621C26.9883 10.3887 26.916 10.0723 26.916 9.71289C26.916 9.36133 26.9902 9.04102 27.1387 8.75195C27.291 8.46289 27.5059 8.21484 27.7832 8.00781C28.0605 7.79688 28.3867 7.63477 28.7617 7.52148C29.1406 7.4082 29.5586 7.35156 30.0156 7.35156C30.6484 7.35156 31.1953 7.4668 31.6562 7.69727C32.1211 7.92773 32.4805 8.24023 32.7344 8.63477C32.9883 9.0293 33.1152 9.47266 33.1152 9.96484H31.5098C31.5098 9.69922 31.4531 9.46484 31.3398 9.26172C31.2305 9.05859 31.0625 8.89844 30.8359 8.78125C30.6133 8.66406 30.332 8.60547 29.9922 8.60547C29.6641 8.60547 29.3906 8.6543 29.1719 8.75195C28.957 8.84961 28.7949 8.98242 28.6855 9.15039C28.5801 9.31836 28.5273 9.50586 28.5273 9.71289C28.5273 9.86914 28.5645 10.0098 28.6387 10.1348C28.7129 10.2559 28.8242 10.3711 28.9727 10.4805C29.1211 10.5859 29.3047 10.6855 29.5234 10.7793C29.7461 10.8691 30.0039 10.959 30.2969 11.0488C30.7656 11.1895 31.1758 11.3457 31.5273 11.5176C31.8828 11.6895 32.1777 11.8848 32.4121 12.1035C32.6504 12.3223 32.8281 12.5684 32.9453 12.8418C33.0664 13.1152 33.127 13.4258 33.127 13.7734C33.127 14.1406 33.0547 14.4688 32.9102 14.7578C32.7656 15.0469 32.5586 15.293 32.2891 15.4961C32.0195 15.6992 31.6953 15.8535 31.3164 15.959C30.9414 16.0645 30.5215 16.1172 30.0566 16.1172C29.6426 16.1172 29.2324 16.0625 28.8262 15.9531C28.4238 15.8398 28.0586 15.6719 27.7305 15.4492C27.4023 15.2227 27.1406 14.9375 26.9453 14.5938C26.75 14.2461 26.6523 13.8398 26.6523 13.375H28.2695C28.2695 13.6445 28.3125 13.875 28.3984 14.0664C28.4883 14.2539 28.6133 14.4082 28.7734 14.5293C28.9375 14.6465 29.1289 14.7324 29.3477 14.7871C29.5664 14.8418 29.8027 14.8691 30.0566 14.8691C30.3848 14.8691 30.6543 14.8242 30.8652 14.7344C31.0801 14.6406 31.2402 14.5117 31.3457 14.3477C31.4551 14.1836 31.5098 13.9961 31.5098 13.7852ZM40.0234 14.7344V16H35.4883V14.7344H40.0234ZM35.9805 7.46875V16H34.3691V7.46875H35.9805ZM39.4316 10.9902V12.2266H35.4883V10.9902H39.4316ZM40.0059 7.46875V8.74023H35.4883V7.46875H40.0059Z" fill="#33DC24"/>
</svg>
