<svg width="90" height="116" viewBox="0 0 90 116" fill="none" xmlns="http://www.w3.org/2000/svg">
<g filter="url(#filter0_d_21_32)">
<rect x="84.0032" y="64.9985" width="15" height="80" transform="rotate(90 84.0032 64.9985)" fill="#AF6C3B"/>
<ellipse cx="44.1225" cy="65.1823" rx="7.5" ry="40" transform="rotate(89.0211 44.1225 65.1823)" fill="#824A21"/>
<ellipse cx="44.1222" cy="80.1823" rx="7.5" ry="40" transform="rotate(89.0211 44.1222 80.1823)" fill="#AF6C3B"/>
<rect x="84.0032" y="45.9985" width="15" height="80" transform="rotate(90 84.0032 45.9985)" fill="#AF6C3B"/>
<ellipse cx="44.1225" cy="46.1823" rx="7.5" ry="40" transform="rotate(89.0211 44.1225 46.1823)" fill="#824A21"/>
<ellipse cx="44.1222" cy="61.1823" rx="7.5" ry="40" transform="rotate(89.0211 44.1222 61.1823)" fill="#AF6C3B"/>
<rect x="84.0032" y="26.9985" width="15" height="80" transform="rotate(90 84.0032 26.9985)" fill="#AF6C3B"/>
<ellipse cx="44.1225" cy="27.1823" rx="7.5" ry="40" transform="rotate(89.0211 44.1225 27.1823)" fill="#824A21"/>
<ellipse cx="44.1222" cy="42.1823" rx="7.5" ry="40" transform="rotate(89.0211 44.1222 42.1823)" fill="#AF6C3B"/>
<rect x="84.0032" y="7.99854" width="15" height="80" transform="rotate(90 84.0032 7.99854)" fill="#AF6C3B"/>
<ellipse cx="44.1225" cy="8.18227" rx="7.5" ry="40" transform="rotate(89.0211 44.1225 8.18227)" fill="#824A21"/>
<ellipse cx="44.1222" cy="23.1823" rx="7.5" ry="40" transform="rotate(89.0211 44.1222 23.1823)" fill="#AF6C3B"/>
<path d="M10.457 107H7.64453L7.9873 105.102L10.5273 105.11C11.3535 105.11 12.0537 104.92 12.6279 104.539C13.208 104.152 13.665 103.643 13.999 103.01C14.3389 102.371 14.5674 101.674 14.6846 100.918L14.7637 100.25C14.8281 99.7812 14.8457 99.3066 14.8164 98.8262C14.793 98.3457 14.6992 97.9062 14.5352 97.5078C14.3711 97.1035 14.1162 96.7754 13.7705 96.5234C13.4248 96.2715 12.9648 96.1367 12.3906 96.1191L9.48145 96.1104L9.81543 94.2031L12.4609 94.2119C13.3164 94.2295 14.0576 94.4053 14.6846 94.7393C15.3174 95.0674 15.8301 95.5127 16.2227 96.0752C16.6211 96.6377 16.8965 97.2793 17.0488 98C17.207 98.7207 17.2393 99.4766 17.1455 100.268L17.0664 100.927C16.9492 101.788 16.7061 102.591 16.3369 103.335C15.9736 104.073 15.5049 104.718 14.9307 105.269C14.3564 105.813 13.6914 106.241 12.9355 106.552C12.1797 106.856 11.3535 107.006 10.457 107ZM11.1953 94.2031L8.97168 107H6.60742L8.82227 94.2031H11.1953ZM23.2715 104.979L23.9658 100.558C24.001 100.276 23.9834 100.021 23.9131 99.793C23.8486 99.5586 23.7256 99.3711 23.5439 99.2305C23.3623 99.0898 23.1162 99.0166 22.8057 99.0107C22.5303 99.0049 22.2754 99.0518 22.041 99.1514C21.8125 99.251 21.6191 99.3945 21.4609 99.582C21.3027 99.7695 21.1943 99.998 21.1357 100.268L18.8682 100.285C18.9033 99.7695 19.0527 99.3242 19.3164 98.9492C19.5801 98.5684 19.9141 98.2578 20.3184 98.0176C20.7227 97.7715 21.1621 97.5898 21.6367 97.4727C22.1113 97.3555 22.5771 97.3027 23.0342 97.3145C23.6846 97.3262 24.2646 97.4639 24.7744 97.7275C25.2842 97.9912 25.6738 98.3662 25.9434 98.8525C26.2129 99.333 26.3125 99.9189 26.2422 100.61L25.5654 104.759C25.5127 105.099 25.4746 105.45 25.4512 105.813C25.4277 106.171 25.4746 106.514 25.5918 106.842L25.583 107L23.3418 107.009C23.2422 106.681 23.1924 106.344 23.1924 105.998C23.1982 105.652 23.2246 105.312 23.2715 104.979ZM24.2295 101.208L24.001 102.588L22.6914 102.579C22.4219 102.579 22.1494 102.608 21.874 102.667C21.6045 102.726 21.3525 102.819 21.1182 102.948C20.8838 103.071 20.6875 103.238 20.5293 103.449C20.3711 103.66 20.2744 103.918 20.2393 104.223C20.21 104.457 20.2363 104.662 20.3184 104.838C20.4004 105.014 20.5234 105.154 20.6875 105.26C20.8574 105.359 21.0596 105.412 21.2939 105.418C21.6162 105.424 21.9326 105.362 22.2432 105.233C22.5537 105.099 22.8232 104.911 23.0518 104.671C23.2861 104.431 23.4473 104.152 23.5352 103.836L24.0713 104.855C23.9424 105.201 23.7666 105.518 23.5439 105.805C23.3213 106.092 23.0635 106.341 22.7705 106.552C22.4775 106.757 22.1582 106.915 21.8125 107.026C21.4727 107.144 21.1152 107.199 20.7402 107.193C20.2129 107.182 19.7295 107.059 19.29 106.824C18.8564 106.59 18.5137 106.265 18.2617 105.849C18.0098 105.433 17.8955 104.952 17.9189 104.407C17.9482 103.786 18.1035 103.271 18.3848 102.86C18.6719 102.444 19.041 102.116 19.4922 101.876C19.9434 101.636 20.4355 101.463 20.9688 101.357C21.5078 101.252 22.0381 101.199 22.5596 101.199L24.2295 101.208ZM33.2295 97.4902L32.9395 99.1602H27.6396L27.9297 97.4902H33.2295ZM29.749 95.1523H32.0166L30.4609 104.275C30.4375 104.48 30.4375 104.656 30.4609 104.803C30.4902 104.949 30.5576 105.063 30.6631 105.146C30.7744 105.228 30.9414 105.271 31.1641 105.277C31.2871 105.283 31.4102 105.277 31.5332 105.26C31.6621 105.242 31.7881 105.228 31.9111 105.216L31.7529 106.974C31.5303 107.038 31.3047 107.085 31.0762 107.114C30.8477 107.149 30.6162 107.167 30.3818 107.167C29.8369 107.155 29.3916 107.032 29.0459 106.798C28.7061 106.563 28.4658 106.244 28.3252 105.84C28.1846 105.43 28.1377 104.964 28.1846 104.442L29.749 95.1523ZM38.5293 104.979L39.2236 100.558C39.2588 100.276 39.2412 100.021 39.1709 99.793C39.1064 99.5586 38.9834 99.3711 38.8018 99.2305C38.6201 99.0898 38.374 99.0166 38.0635 99.0107C37.7881 99.0049 37.5332 99.0518 37.2988 99.1514C37.0703 99.251 36.877 99.3945 36.7188 99.582C36.5605 99.7695 36.4521 99.998 36.3936 100.268L34.126 100.285C34.1611 99.7695 34.3105 99.3242 34.5742 98.9492C34.8379 98.5684 35.1719 98.2578 35.5762 98.0176C35.9805 97.7715 36.4199 97.5898 36.8945 97.4727C37.3691 97.3555 37.835 97.3027 38.292 97.3145C38.9424 97.3262 39.5225 97.4639 40.0322 97.7275C40.542 97.9912 40.9316 98.3662 41.2012 98.8525C41.4707 99.333 41.5703 99.9189 41.5 100.61L40.8232 104.759C40.7705 105.099 40.7324 105.45 40.709 105.813C40.6855 106.171 40.7324 106.514 40.8496 106.842L40.8408 107L38.5996 107.009C38.5 106.681 38.4502 106.344 38.4502 105.998C38.4561 105.652 38.4824 105.312 38.5293 104.979ZM39.4873 101.208L39.2588 102.588L37.9492 102.579C37.6797 102.579 37.4072 102.608 37.1318 102.667C36.8623 102.726 36.6104 102.819 36.376 102.948C36.1416 103.071 35.9453 103.238 35.7871 103.449C35.6289 103.66 35.5322 103.918 35.4971 104.223C35.4678 104.457 35.4941 104.662 35.5762 104.838C35.6582 105.014 35.7812 105.154 35.9453 105.26C36.1152 105.359 36.3174 105.412 36.5518 105.418C36.874 105.424 37.1904 105.362 37.501 105.233C37.8115 105.099 38.0811 104.911 38.3096 104.671C38.5439 104.431 38.7051 104.152 38.793 103.836L39.3291 104.855C39.2002 105.201 39.0244 105.518 38.8018 105.805C38.5791 106.092 38.3213 106.341 38.0283 106.552C37.7354 106.757 37.416 106.915 37.0703 107.026C36.7305 107.144 36.373 107.199 35.998 107.193C35.4707 107.182 34.9873 107.059 34.5479 106.824C34.1143 106.59 33.7715 106.265 33.5195 105.849C33.2676 105.433 33.1533 104.952 33.1768 104.407C33.2061 103.786 33.3613 103.271 33.6426 102.86C33.9297 102.444 34.2988 102.116 34.75 101.876C35.2012 101.636 35.6934 101.463 36.2266 101.357C36.7656 101.252 37.2959 101.199 37.8174 101.199L39.4873 101.208ZM52.917 101.296H49.6211L49.9111 99.5908L52.5039 99.5996C52.9082 99.5996 53.292 99.541 53.6553 99.4238C54.0244 99.3008 54.332 99.1074 54.5781 98.8438C54.8301 98.5801 54.9883 98.2285 55.0527 97.7891C55.1055 97.3848 55.0674 97.0625 54.9385 96.8223C54.8096 96.5762 54.6045 96.4004 54.3232 96.2949C54.0479 96.1895 53.7227 96.1309 53.3477 96.1191L51.3086 96.1104L49.4189 107H47.0547L49.2695 94.2031L53.418 94.2119C53.9629 94.2178 54.4844 94.2852 54.9824 94.4141C55.4863 94.5371 55.9287 94.7305 56.3096 94.9941C56.6963 95.2578 56.9922 95.6064 57.1973 96.04C57.4082 96.4678 57.4902 96.9922 57.4434 97.6133C57.4023 98.2871 57.2031 98.8438 56.8457 99.2832C56.4941 99.7227 56.043 100.057 55.4922 100.285C54.9473 100.514 54.3672 100.648 53.752 100.689L52.917 101.296ZM51.8535 107H47.8896L49.1992 105.102L51.9326 105.11C52.3428 105.104 52.7236 105.031 53.0752 104.891C53.4326 104.75 53.7314 104.536 53.9717 104.249C54.2119 103.962 54.3613 103.604 54.4199 103.177C54.4727 102.802 54.4521 102.479 54.3584 102.21C54.2705 101.935 54.1064 101.721 53.8662 101.568C53.6318 101.41 53.3213 101.322 52.9346 101.305L50.3682 101.296L50.6758 99.5908L53.6904 99.5996L54.1035 100.25C54.6602 100.297 55.1436 100.443 55.5537 100.689C55.9697 100.936 56.2803 101.27 56.4854 101.691C56.6963 102.113 56.7842 102.611 56.749 103.186C56.6846 104.088 56.418 104.82 55.9492 105.383C55.4863 105.945 54.8945 106.358 54.1738 106.622C53.4531 106.88 52.6797 107.006 51.8535 107ZM63.4375 104.979L64.1318 100.558C64.167 100.276 64.1494 100.021 64.0791 99.793C64.0146 99.5586 63.8916 99.3711 63.71 99.2305C63.5283 99.0898 63.2822 99.0166 62.9717 99.0107C62.6963 99.0049 62.4414 99.0518 62.207 99.1514C61.9785 99.251 61.7852 99.3945 61.627 99.582C61.4688 99.7695 61.3604 99.998 61.3018 100.268L59.0342 100.285C59.0693 99.7695 59.2188 99.3242 59.4824 98.9492C59.7461 98.5684 60.0801 98.2578 60.4844 98.0176C60.8887 97.7715 61.3281 97.5898 61.8027 97.4727C62.2773 97.3555 62.7432 97.3027 63.2002 97.3145C63.8506 97.3262 64.4307 97.4639 64.9404 97.7275C65.4502 97.9912 65.8398 98.3662 66.1094 98.8525C66.3789 99.333 66.4785 99.9189 66.4082 100.61L65.7314 104.759C65.6787 105.099 65.6406 105.45 65.6172 105.813C65.5938 106.171 65.6406 106.514 65.7578 106.842L65.749 107L63.5078 107.009C63.4082 106.681 63.3584 106.344 63.3584 105.998C63.3643 105.652 63.3906 105.312 63.4375 104.979ZM64.3955 101.208L64.167 102.588L62.8574 102.579C62.5879 102.579 62.3154 102.608 62.04 102.667C61.7705 102.726 61.5186 102.819 61.2842 102.948C61.0498 103.071 60.8535 103.238 60.6953 103.449C60.5371 103.66 60.4404 103.918 60.4053 104.223C60.376 104.457 60.4023 104.662 60.4844 104.838C60.5664 105.014 60.6895 105.154 60.8535 105.26C61.0234 105.359 61.2256 105.412 61.46 105.418C61.7822 105.424 62.0986 105.362 62.4092 105.233C62.7197 105.099 62.9893 104.911 63.2178 104.671C63.4521 104.431 63.6133 104.152 63.7012 103.836L64.2373 104.855C64.1084 105.201 63.9326 105.518 63.71 105.805C63.4873 106.092 63.2295 106.341 62.9365 106.552C62.6436 106.757 62.3242 106.915 61.9785 107.026C61.6387 107.144 61.2812 107.199 60.9062 107.193C60.3789 107.182 59.8955 107.059 59.4561 106.824C59.0225 106.59 58.6797 106.265 58.4277 105.849C58.1758 105.433 58.0615 104.952 58.085 104.407C58.1143 103.786 58.2695 103.271 58.5508 102.86C58.8379 102.444 59.207 102.116 59.6582 101.876C60.1094 101.636 60.6016 101.463 61.1348 101.357C61.6738 101.252 62.2041 101.199 62.7256 101.199L64.3955 101.208ZM72.9561 104.346C73.0029 104.047 72.9326 103.815 72.7451 103.651C72.5576 103.481 72.3232 103.353 72.042 103.265C71.7666 103.177 71.5205 103.106 71.3037 103.054C70.9521 102.96 70.5977 102.843 70.2402 102.702C69.8887 102.562 69.5664 102.386 69.2734 102.175C68.9863 101.958 68.7578 101.694 68.5879 101.384C68.418 101.073 68.3418 100.704 68.3594 100.276C68.3828 99.7725 68.5117 99.3359 68.7461 98.9668C68.9863 98.5918 69.2939 98.2812 69.6689 98.0352C70.0498 97.7891 70.4658 97.6045 70.917 97.4814C71.3682 97.3584 71.8193 97.3027 72.2705 97.3145C72.8916 97.3203 73.4658 97.4375 73.9932 97.666C74.5264 97.8945 74.9541 98.2344 75.2764 98.6855C75.6045 99.1367 75.7656 99.6934 75.7598 100.355L73.5098 100.347C73.5215 100.071 73.4746 99.8311 73.3691 99.626C73.2695 99.4209 73.1201 99.2656 72.9209 99.1602C72.7217 99.0488 72.4756 98.9902 72.1826 98.9844C71.9365 98.9844 71.6934 99.0283 71.4531 99.1162C71.2188 99.2041 71.0166 99.3359 70.8467 99.5117C70.6768 99.6875 70.5713 99.9072 70.5303 100.171C70.4951 100.382 70.5244 100.558 70.6182 100.698C70.7178 100.833 70.8496 100.941 71.0137 101.023C71.1836 101.105 71.3623 101.173 71.5498 101.226C71.7373 101.278 71.9072 101.322 72.0596 101.357C72.5635 101.486 73.0586 101.656 73.5449 101.867C74.0312 102.078 74.4268 102.371 74.7314 102.746C75.042 103.121 75.1855 103.616 75.1621 104.231C75.1387 104.753 74.998 105.204 74.7402 105.585C74.4824 105.96 74.1514 106.268 73.7471 106.508C73.3486 106.742 72.9121 106.912 72.4375 107.018C71.9688 107.129 71.5088 107.182 71.0576 107.176C70.4248 107.164 69.8301 107.035 69.2734 106.789C68.7227 106.543 68.2773 106.186 67.9375 105.717C67.5977 105.248 67.4277 104.674 67.4277 103.994L69.5811 104.003C69.5869 104.325 69.6514 104.598 69.7744 104.82C69.9033 105.043 70.085 105.213 70.3193 105.33C70.5596 105.441 70.8379 105.497 71.1543 105.497C71.4121 105.503 71.6699 105.471 71.9277 105.4C72.1855 105.324 72.4082 105.201 72.5957 105.031C72.7832 104.855 72.9033 104.627 72.9561 104.346ZM80.708 107.176C80.0576 107.164 79.4775 107.038 78.9678 106.798C78.458 106.558 78.0332 106.229 77.6934 105.813C77.3535 105.397 77.1045 104.914 76.9463 104.363C76.7939 103.812 76.7412 103.224 76.7881 102.597L76.8232 102.236C76.8877 101.586 77.043 100.965 77.2891 100.373C77.541 99.7754 77.875 99.2451 78.291 98.7822C78.7129 98.3135 79.208 97.9473 79.7764 97.6836C80.3506 97.4199 80.9863 97.2969 81.6836 97.3145C82.3457 97.3262 82.9082 97.4639 83.3711 97.7275C83.834 97.9854 84.2031 98.334 84.4785 98.7734C84.7598 99.207 84.9502 99.6992 85.0498 100.25C85.1494 100.801 85.167 101.375 85.1025 101.973L84.9707 102.948H77.7285L77.9834 101.349L82.9316 101.357L82.9668 101.155C83.0195 100.81 83.002 100.484 82.9141 100.18C82.832 99.875 82.6768 99.6289 82.4482 99.4414C82.2256 99.248 81.9238 99.1455 81.543 99.1338C81.1211 99.1221 80.7637 99.2129 80.4707 99.4062C80.1777 99.5938 79.9346 99.8428 79.7412 100.153C79.5537 100.464 79.4072 100.804 79.3018 101.173C79.1963 101.536 79.123 101.891 79.082 102.236L79.0469 102.588C79.0176 102.916 79.0264 103.241 79.0732 103.563C79.126 103.886 79.2227 104.179 79.3633 104.442C79.5098 104.706 79.7119 104.92 79.9697 105.084C80.2275 105.248 80.5469 105.336 80.9277 105.348C81.4082 105.359 81.8477 105.263 82.2461 105.058C82.6504 104.847 83.0166 104.571 83.3447 104.231L84.4082 105.436C84.1387 105.834 83.8047 106.165 83.4062 106.429C83.0078 106.687 82.5742 106.877 82.1055 107C81.6426 107.123 81.1768 107.182 80.708 107.176Z" fill="#33DC24"/>
</g>
<defs>
<filter id="filter0_d_21_32" x="0.00317383" y="0.651855" width="89.196" height="114.55" filterUnits="userSpaceOnUse" color-interpolation-filters="sRGB">
<feFlood flood-opacity="0" result="BackgroundImageFix"/>
<feColorMatrix in="SourceAlpha" type="matrix" values="0 0 0 0 0 0 0 0 0 0 0 0 0 0 0 0 0 0 127 0" result="hardAlpha"/>
<feOffset dy="4"/>
<feGaussianBlur stdDeviation="2"/>
<feComposite in2="hardAlpha" operator="out"/>
<feColorMatrix type="matrix" values="0 0 0 0 0 0 0 0 0 0 0 0 0 0 0 0 0 0 0.25 0"/>
<feBlend mode="normal" in2="BackgroundImageFix" result="effect1_dropShadow_21_32"/>
<feBlend mode="normal" in="SourceGraphic" in2="effect1_dropShadow_21_32" result="shape"/>
</filter>
</defs>
</svg>
