<svg width="88" height="47" viewBox="0 0 88 47" fill="none" xmlns="http://www.w3.org/2000/svg">
<rect width="88" height="47" fill="#D4B930"/>
<rect x="2" y="2" width="84" height="43" fill="#171612"/>
<path d="M20.1855 17.1016V19H13.3828V17.1016H20.1855ZM14.1211 6.20312V19H11.7041V6.20312H14.1211ZM19.2979 11.4854V13.3398H13.3828V11.4854H19.2979ZM20.1592 6.20312V8.11035H13.3828V6.20312H20.1592ZM23.7891 6.20312L26.3467 10.7646L28.9131 6.20312H31.6904L27.8936 12.5488L31.7871 19H28.9834L26.3467 14.3506L23.7188 19H20.9062L24.7998 12.5488L21.0029 6.20312H23.7891ZM38.7656 6.20312V19H36.3574V6.20312H38.7656ZM42.7383 6.20312V8.11035H32.4287V6.20312H42.7383ZM52.8281 17.1016V19H46.0254V17.1016H52.8281ZM46.7637 6.20312V19H44.3467V6.20312H46.7637ZM51.9404 11.4854V13.3398H46.0254V11.4854H51.9404ZM52.8018 6.20312V8.11035H46.0254V6.20312H52.8018ZM54.5068 6.20312H59.1562C60.1289 6.20312 60.9639 6.34961 61.6611 6.64258C62.3584 6.93555 62.8945 7.36914 63.2695 7.94336C63.6445 8.51758 63.832 9.22363 63.832 10.0615C63.832 10.7236 63.7148 11.2979 63.4805 11.7842C63.2461 12.2705 62.915 12.6777 62.4873 13.0059C62.0654 13.334 61.5674 13.5918 60.9932 13.7793L60.2373 14.166H56.1328L56.1152 12.2588H59.1826C59.6807 12.2588 60.0938 12.1709 60.4219 11.9951C60.75 11.8193 60.9961 11.5762 61.1602 11.2656C61.3301 10.9551 61.415 10.6006 61.415 10.2021C61.415 9.77441 61.333 9.40527 61.1689 9.09473C61.0049 8.77832 60.7559 8.53516 60.4219 8.36523C60.0879 8.19531 59.666 8.11035 59.1562 8.11035H56.9238V19H54.5068V6.20312ZM61.7314 19L58.7695 13.2695L61.3271 13.2607L64.3242 18.877V19H61.7314ZM76.2334 6.20312V19H73.8076L68.3672 10.123V19H65.9502V6.20312H68.3672L73.8252 15.0889V6.20312H76.2334ZM13.9189 36.6777C13.9189 36.4316 13.8809 36.2119 13.8047 36.0186C13.7344 35.8193 13.6025 35.6406 13.4092 35.4824C13.2217 35.3184 12.9551 35.1602 12.6094 35.0078C12.2695 34.8496 11.8301 34.6855 11.291 34.5156C10.6934 34.3281 10.1367 34.1172 9.62109 33.8828C9.10547 33.6484 8.65137 33.376 8.25879 33.0654C7.87207 32.7549 7.57031 32.3975 7.35352 31.9932C7.13672 31.583 7.02832 31.1084 7.02832 30.5693C7.02832 30.042 7.13965 29.5615 7.3623 29.1279C7.59082 28.6943 7.91309 28.3223 8.3291 28.0117C8.74512 27.6953 9.23438 27.4521 9.79688 27.2822C10.3652 27.1123 10.9922 27.0273 11.6777 27.0273C12.627 27.0273 13.4473 27.2002 14.1387 27.5459C14.8359 27.8916 15.375 28.3604 15.7559 28.9521C16.1367 29.5439 16.3271 30.209 16.3271 30.9473H13.9189C13.9189 30.5488 13.834 30.1973 13.6641 29.8926C13.5 29.5879 13.248 29.3477 12.9082 29.1719C12.5742 28.9961 12.1523 28.9082 11.6426 28.9082C11.1504 28.9082 10.7402 28.9814 10.4121 29.1279C10.0898 29.2744 9.84668 29.4736 9.68262 29.7256C9.52441 29.9775 9.44531 30.2588 9.44531 30.5693C9.44531 30.8037 9.50098 31.0146 9.6123 31.2021C9.72363 31.3838 9.89062 31.5566 10.1133 31.7207C10.3359 31.8789 10.6113 32.0283 10.9395 32.1689C11.2734 32.3037 11.6602 32.4385 12.0996 32.5732C12.8027 32.7842 13.418 33.0186 13.9453 33.2764C14.4785 33.5342 14.9209 33.8271 15.2725 34.1553C15.6299 34.4834 15.8965 34.8525 16.0723 35.2627C16.2539 35.6729 16.3447 36.1387 16.3447 36.6602C16.3447 37.2109 16.2363 37.7031 16.0195 38.1367C15.8027 38.5703 15.4922 38.9395 15.0879 39.2441C14.6836 39.5488 14.1973 39.7803 13.6289 39.9385C13.0664 40.0967 12.4365 40.1758 11.7393 40.1758C11.1182 40.1758 10.5029 40.0938 9.89355 39.9297C9.29004 39.7598 8.74219 39.5078 8.25 39.1738C7.75781 38.834 7.36523 38.4062 7.07227 37.8906C6.7793 37.3691 6.63281 36.7598 6.63281 36.0625H9.05859C9.05859 36.4668 9.12305 36.8125 9.25195 37.0996C9.38672 37.3809 9.57422 37.6123 9.81445 37.7939C10.0605 37.9697 10.3477 38.0986 10.6758 38.1807C11.0039 38.2627 11.3584 38.3037 11.7393 38.3037C12.2314 38.3037 12.6357 38.2363 12.9521 38.1016C13.2744 37.9609 13.5146 37.7676 13.6729 37.5215C13.8369 37.2754 13.9189 36.9941 13.9189 36.6777ZM26.6895 38.1016V40H19.8867V38.1016H26.6895ZM20.625 27.2031V40H18.208V27.2031H20.625ZM25.8018 32.4854V34.3398H19.8867V32.4854H25.8018ZM26.6631 27.2031V29.1104H19.8867V27.2031H26.6631ZM28.3682 27.2031H33.0176C33.9902 27.2031 34.8252 27.3496 35.5225 27.6426C36.2197 27.9355 36.7559 28.3691 37.1309 28.9434C37.5059 29.5176 37.6934 30.2236 37.6934 31.0615C37.6934 31.7236 37.5762 32.2979 37.3418 32.7842C37.1074 33.2705 36.7764 33.6777 36.3486 34.0059C35.9268 34.334 35.4287 34.5918 34.8545 34.7793L34.0986 35.166H29.9941L29.9766 33.2588H33.0439C33.542 33.2588 33.9551 33.1709 34.2832 32.9951C34.6113 32.8193 34.8574 32.5762 35.0215 32.2656C35.1914 31.9551 35.2764 31.6006 35.2764 31.2021C35.2764 30.7744 35.1943 30.4053 35.0303 30.0947C34.8662 29.7783 34.6172 29.5352 34.2832 29.3652C33.9492 29.1953 33.5273 29.1104 33.0176 29.1104H30.7852V40H28.3682V27.2031ZM35.5928 40L32.6309 34.2695L35.1885 34.2607L38.1855 39.877V40H35.5928ZM44.1357 37.4951L47.3262 27.2031H50.0068L45.4893 40H43.7051L44.1357 37.4951ZM41.1914 27.2031L44.3643 37.4951L44.8213 40H43.0195L38.5195 27.2031H41.1914ZM59.8066 38.1016V40H53.0039V38.1016H59.8066ZM53.7422 27.2031V40H51.3252V27.2031H53.7422ZM58.9189 32.4854V34.3398H53.0039V32.4854H58.9189ZM59.7803 27.2031V29.1104H53.0039V27.2031H59.7803ZM61.4854 27.2031H66.1348C67.1074 27.2031 67.9424 27.3496 68.6396 27.6426C69.3369 27.9355 69.873 28.3691 70.248 28.9434C70.623 29.5176 70.8105 30.2236 70.8105 31.0615C70.8105 31.7236 70.6934 32.2979 70.459 32.7842C70.2246 33.2705 69.8936 33.6777 69.4658 34.0059C69.0439 34.334 68.5459 34.5918 67.9717 34.7793L67.2158 35.166H63.1113L63.0938 33.2588H66.1611C66.6592 33.2588 67.0723 33.1709 67.4004 32.9951C67.7285 32.8193 67.9746 32.5762 68.1387 32.2656C68.3086 31.9551 68.3936 31.6006 68.3936 31.2021C68.3936 30.7744 68.3115 30.4053 68.1475 30.0947C67.9834 29.7783 67.7344 29.5352 67.4004 29.3652C67.0664 29.1953 66.6445 29.1104 66.1348 29.1104H63.9023V40H61.4854V27.2031ZM68.71 40L65.748 34.2695L68.3057 34.2607L71.3027 39.877V40H68.71ZM79.626 36.6777C79.626 36.4316 79.5879 36.2119 79.5117 36.0186C79.4414 35.8193 79.3096 35.6406 79.1162 35.4824C78.9287 35.3184 78.6621 35.1602 78.3164 35.0078C77.9766 34.8496 77.5371 34.6855 76.998 34.5156C76.4004 34.3281 75.8438 34.1172 75.3281 33.8828C74.8125 33.6484 74.3584 33.376 73.9658 33.0654C73.5791 32.7549 73.2773 32.3975 73.0605 31.9932C72.8438 31.583 72.7354 31.1084 72.7354 30.5693C72.7354 30.042 72.8467 29.5615 73.0693 29.1279C73.2979 28.6943 73.6201 28.3223 74.0361 28.0117C74.4521 27.6953 74.9414 27.4521 75.5039 27.2822C76.0723 27.1123 76.6992 27.0273 77.3848 27.0273C78.334 27.0273 79.1543 27.2002 79.8457 27.5459C80.543 27.8916 81.082 28.3604 81.4629 28.9521C81.8438 29.5439 82.0342 30.209 82.0342 30.9473H79.626C79.626 30.5488 79.541 30.1973 79.3711 29.8926C79.207 29.5879 78.9551 29.3477 78.6152 29.1719C78.2812 28.9961 77.8594 28.9082 77.3496 28.9082C76.8574 28.9082 76.4473 28.9814 76.1191 29.1279C75.7969 29.2744 75.5537 29.4736 75.3896 29.7256C75.2314 29.9775 75.1523 30.2588 75.1523 30.5693C75.1523 30.8037 75.208 31.0146 75.3193 31.2021C75.4307 31.3838 75.5977 31.5566 75.8203 31.7207C76.043 31.8789 76.3184 32.0283 76.6465 32.1689C76.9805 32.3037 77.3672 32.4385 77.8066 32.5732C78.5098 32.7842 79.125 33.0186 79.6523 33.2764C80.1855 33.5342 80.6279 33.8271 80.9795 34.1553C81.3369 34.4834 81.6035 34.8525 81.7793 35.2627C81.9609 35.6729 82.0518 36.1387 82.0518 36.6602C82.0518 37.2109 81.9434 37.7031 81.7266 38.1367C81.5098 38.5703 81.1992 38.9395 80.7949 39.2441C80.3906 39.5488 79.9043 39.7803 79.3359 39.9385C78.7734 40.0967 78.1436 40.1758 77.4463 40.1758C76.8252 40.1758 76.21 40.0938 75.6006 39.9297C74.9971 39.7598 74.4492 39.5078 73.957 39.1738C73.4648 38.834 73.0723 38.4062 72.7793 37.8906C72.4863 37.3691 72.3398 36.7598 72.3398 36.0625H74.7656C74.7656 36.4668 74.8301 36.8125 74.959 37.0996C75.0938 37.3809 75.2812 37.6123 75.5215 37.7939C75.7676 37.9697 76.0547 38.0986 76.3828 38.1807C76.7109 38.2627 77.0654 38.3037 77.4463 38.3037C77.9385 38.3037 78.3428 38.2363 78.6592 38.1016C78.9814 37.9609 79.2217 37.7676 79.3799 37.5215C79.5439 37.2754 79.626 36.9941 79.626 36.6777Z" fill="#33DC24"/>
</svg>
