<svg width="86" height="45" viewBox="0 0 86 45" fill="none" xmlns="http://www.w3.org/2000/svg">
<rect width="86" height="45" fill="#D4B930"/>
<rect x="1" y="1" width="84" height="43" fill="#171612"/>
<path d="M19.7031 16.1016V18H12.9004V16.1016H19.7031ZM13.6387 5.20312V18H11.2217V5.20312H13.6387ZM18.8154 10.4854V12.3398H12.9004V10.4854H18.8154ZM19.6768 5.20312V7.11035H12.9004V5.20312H19.6768ZM23.3066 5.20312L25.8643 9.76465L28.4307 5.20312H31.208L27.4111 11.5488L31.3047 18H28.501L25.8643 13.3506L23.2363 18H20.4238L24.3174 11.5488L20.5205 5.20312H23.3066ZM38.2832 5.20312V18H35.875V5.20312H38.2832ZM42.2559 5.20312V7.11035H31.9463V5.20312H42.2559ZM52.3457 16.1016V18H45.543V16.1016H52.3457ZM46.2812 5.20312V18H43.8643V5.20312H46.2812ZM51.458 10.4854V12.3398H45.543V10.4854H51.458ZM52.3193 5.20312V7.11035H45.543V5.20312H52.3193ZM54.0244 5.20312H58.6738C59.6465 5.20312 60.4814 5.34961 61.1787 5.64258C61.876 5.93555 62.4121 6.36914 62.7871 6.94336C63.1621 7.51758 63.3496 8.22363 63.3496 9.06152C63.3496 9.72363 63.2324 10.2979 62.998 10.7842C62.7637 11.2705 62.4326 11.6777 62.0049 12.0059C61.583 12.334 61.085 12.5918 60.5107 12.7793L59.7549 13.166H55.6504L55.6328 11.2588H58.7002C59.1982 11.2588 59.6113 11.1709 59.9395 10.9951C60.2676 10.8193 60.5137 10.5762 60.6777 10.2656C60.8477 9.95508 60.9326 9.60059 60.9326 9.20215C60.9326 8.77441 60.8506 8.40527 60.6865 8.09473C60.5225 7.77832 60.2734 7.53516 59.9395 7.36523C59.6055 7.19531 59.1836 7.11035 58.6738 7.11035H56.4414V18H54.0244V5.20312ZM61.249 18L58.2871 12.2695L60.8447 12.2607L63.8418 17.877V18H61.249ZM75.751 5.20312V18H73.3252L67.8848 9.12305V18H65.4678V5.20312H67.8848L73.3428 14.0889V5.20312H75.751ZM17.9189 35.6777C17.9189 35.4316 17.8809 35.2119 17.8047 35.0186C17.7344 34.8193 17.6025 34.6406 17.4092 34.4824C17.2217 34.3184 16.9551 34.1602 16.6094 34.0078C16.2695 33.8496 15.8301 33.6855 15.291 33.5156C14.6934 33.3281 14.1367 33.1172 13.6211 32.8828C13.1055 32.6484 12.6514 32.376 12.2588 32.0654C11.8721 31.7549 11.5703 31.3975 11.3535 30.9932C11.1367 30.583 11.0283 30.1084 11.0283 29.5693C11.0283 29.042 11.1396 28.5615 11.3623 28.1279C11.5908 27.6943 11.9131 27.3223 12.3291 27.0117C12.7451 26.6953 13.2344 26.4521 13.7969 26.2822C14.3652 26.1123 14.9922 26.0273 15.6777 26.0273C16.627 26.0273 17.4473 26.2002 18.1387 26.5459C18.8359 26.8916 19.375 27.3604 19.7559 27.9521C20.1367 28.5439 20.3271 29.209 20.3271 29.9473H17.9189C17.9189 29.5488 17.834 29.1973 17.6641 28.8926C17.5 28.5879 17.248 28.3477 16.9082 28.1719C16.5742 27.9961 16.1523 27.9082 15.6426 27.9082C15.1504 27.9082 14.7402 27.9814 14.4121 28.1279C14.0898 28.2744 13.8467 28.4736 13.6826 28.7256C13.5244 28.9775 13.4453 29.2588 13.4453 29.5693C13.4453 29.8037 13.501 30.0146 13.6123 30.2021C13.7236 30.3838 13.8906 30.5566 14.1133 30.7207C14.3359 30.8789 14.6113 31.0283 14.9395 31.1689C15.2734 31.3037 15.6602 31.4385 16.0996 31.5732C16.8027 31.7842 17.418 32.0186 17.9453 32.2764C18.4785 32.5342 18.9209 32.8271 19.2725 33.1553C19.6299 33.4834 19.8965 33.8525 20.0723 34.2627C20.2539 34.6729 20.3447 35.1387 20.3447 35.6602C20.3447 36.2109 20.2363 36.7031 20.0195 37.1367C19.8027 37.5703 19.4922 37.9395 19.0879 38.2441C18.6836 38.5488 18.1973 38.7803 17.6289 38.9385C17.0664 39.0967 16.4365 39.1758 15.7393 39.1758C15.1182 39.1758 14.5029 39.0938 13.8936 38.9297C13.29 38.7598 12.7422 38.5078 12.25 38.1738C11.7578 37.834 11.3652 37.4062 11.0723 36.8906C10.7793 36.3691 10.6328 35.7598 10.6328 35.0625H13.0586C13.0586 35.4668 13.123 35.8125 13.252 36.0996C13.3867 36.3809 13.5742 36.6123 13.8145 36.7939C14.0605 36.9697 14.3477 37.0986 14.6758 37.1807C15.0039 37.2627 15.3584 37.3037 15.7393 37.3037C16.2314 37.3037 16.6357 37.2363 16.9521 37.1016C17.2744 36.9609 17.5146 36.7676 17.6729 36.5215C17.8369 36.2754 17.9189 35.9941 17.9189 35.6777ZM30.6895 37.1016V39H23.8867V37.1016H30.6895ZM24.625 26.2031V39H22.208V26.2031H24.625ZM29.8018 31.4854V33.3398H23.8867V31.4854H29.8018ZM30.6631 26.2031V28.1104H23.8867V26.2031H30.6631ZM32.3682 26.2031H37.0176C37.9902 26.2031 38.8252 26.3496 39.5225 26.6426C40.2197 26.9355 40.7559 27.3691 41.1309 27.9434C41.5059 28.5176 41.6934 29.2236 41.6934 30.0615C41.6934 30.7236 41.5762 31.2979 41.3418 31.7842C41.1074 32.2705 40.7764 32.6777 40.3486 33.0059C39.9268 33.334 39.4287 33.5918 38.8545 33.7793L38.0986 34.166H33.9941L33.9766 32.2588H37.0439C37.542 32.2588 37.9551 32.1709 38.2832 31.9951C38.6113 31.8193 38.8574 31.5762 39.0215 31.2656C39.1914 30.9551 39.2764 30.6006 39.2764 30.2021C39.2764 29.7744 39.1943 29.4053 39.0303 29.0947C38.8662 28.7783 38.6172 28.5352 38.2832 28.3652C37.9492 28.1953 37.5273 28.1104 37.0176 28.1104H34.7852V39H32.3682V26.2031ZM39.5928 39L36.6309 33.2695L39.1885 33.2607L42.1855 38.877V39H39.5928ZM48.1357 36.4951L51.3262 26.2031H54.0068L49.4893 39H47.7051L48.1357 36.4951ZM45.1914 26.2031L48.3643 36.4951L48.8213 39H47.0195L42.5195 26.2031H45.1914ZM63.8066 37.1016V39H57.0039V37.1016H63.8066ZM57.7422 26.2031V39H55.3252V26.2031H57.7422ZM62.9189 31.4854V33.3398H57.0039V31.4854H62.9189ZM63.7803 26.2031V28.1104H57.0039V26.2031H63.7803ZM65.4854 26.2031H70.1348C71.1074 26.2031 71.9424 26.3496 72.6396 26.6426C73.3369 26.9355 73.873 27.3691 74.248 27.9434C74.623 28.5176 74.8105 29.2236 74.8105 30.0615C74.8105 30.7236 74.6934 31.2979 74.459 31.7842C74.2246 32.2705 73.8936 32.6777 73.4658 33.0059C73.0439 33.334 72.5459 33.5918 71.9717 33.7793L71.2158 34.166H67.1113L67.0938 32.2588H70.1611C70.6592 32.2588 71.0723 32.1709 71.4004 31.9951C71.7285 31.8193 71.9746 31.5762 72.1387 31.2656C72.3086 30.9551 72.3936 30.6006 72.3936 30.2021C72.3936 29.7744 72.3115 29.4053 72.1475 29.0947C71.9834 28.7783 71.7344 28.5352 71.4004 28.3652C71.0664 28.1953 70.6445 28.1104 70.1348 28.1104H67.9023V39H65.4854V26.2031ZM72.71 39L69.748 33.2695L72.3057 33.2607L75.3027 38.877V39H72.71Z" fill="#D4B930"/>
</svg>
