<svg width="88" height="47" viewBox="0 0 88 47" fill="none" xmlns="http://www.w3.org/2000/svg">
<rect width="88" height="47" fill="#D4B930"/>
<rect x="2" y="2" width="84" height="43" fill="#171612"/>
<path d="M34.4346 7.20312V20H32.0088L26.5684 11.123V20H24.1514V7.20312H26.5684L32.0264 16.0889V7.20312H34.4346ZM45.377 18.1016V20H38.5742V18.1016H45.377ZM39.3125 7.20312V20H36.8955V7.20312H39.3125ZM44.4893 12.4854V14.3398H38.5742V12.4854H44.4893ZM45.3506 7.20312V9.11035H38.5742V7.20312H45.3506ZM50.2021 17.5479L52.751 7.20312H54.1309L54.2188 9.38281L51.4941 20H50.0352L50.2021 17.5479ZM48.5938 7.20312L50.6855 17.5127V20H49.0947L46.1943 7.20312H48.5938ZM56.8643 17.4688L58.9209 7.20312H61.3291L58.4287 20H56.8379L56.8643 17.4688ZM54.79 7.20312L57.3389 17.583L57.4883 20H56.0293L53.3135 9.37402L53.4189 7.20312H54.79ZM11.1436 36.333H7.84766V34.4346H11.1436C11.6826 34.4346 12.1191 34.3467 12.4531 34.1709C12.793 33.9893 13.042 33.7432 13.2002 33.4326C13.3584 33.1162 13.4375 32.7559 13.4375 32.3516C13.4375 31.959 13.3584 31.5928 13.2002 31.2529C13.042 30.9131 12.793 30.6377 12.4531 30.4268C12.1191 30.2158 11.6826 30.1104 11.1436 30.1104H8.63867V41H6.22168V28.2031H11.1436C12.1396 28.2031 12.9893 28.3818 13.6924 28.7393C14.4014 29.0908 14.9404 29.5801 15.3096 30.207C15.6846 30.8281 15.8721 31.5371 15.8721 32.334C15.8721 33.1602 15.6846 33.8721 15.3096 34.4697C14.9404 35.0674 14.4014 35.5273 13.6924 35.8496C12.9893 36.1719 12.1396 36.333 11.1436 36.333ZM17.7705 28.2031H22.4199C23.3926 28.2031 24.2275 28.3496 24.9248 28.6426C25.6221 28.9355 26.1582 29.3691 26.5332 29.9434C26.9082 30.5176 27.0957 31.2236 27.0957 32.0615C27.0957 32.7236 26.9785 33.2979 26.7441 33.7842C26.5098 34.2705 26.1787 34.6777 25.751 35.0059C25.3291 35.334 24.8311 35.5918 24.2568 35.7793L23.501 36.166H19.3965L19.3789 34.2588H22.4463C22.9443 34.2588 23.3574 34.1709 23.6855 33.9951C24.0137 33.8193 24.2598 33.5762 24.4238 33.2656C24.5938 32.9551 24.6787 32.6006 24.6787 32.2021C24.6787 31.7744 24.5967 31.4053 24.4326 31.0947C24.2686 30.7783 24.0195 30.5352 23.6855 30.3652C23.3516 30.1953 22.9297 30.1104 22.4199 30.1104H20.1875V41H17.7705V28.2031ZM24.9951 41L22.0332 35.2695L24.5908 35.2607L27.5879 40.877V41H24.9951ZM39.5762 34.2764V34.9355C39.5762 35.9023 39.4473 36.7725 39.1895 37.5459C38.9316 38.3135 38.5654 38.9668 38.0908 39.5059C37.6162 40.0449 37.0508 40.458 36.3945 40.7451C35.7383 41.0322 35.0088 41.1758 34.2061 41.1758C33.415 41.1758 32.6885 41.0322 32.0264 40.7451C31.3701 40.458 30.8018 40.0449 30.3213 39.5059C29.8408 38.9668 29.4688 38.3135 29.2051 37.5459C28.9414 36.7725 28.8096 35.9023 28.8096 34.9355V34.2764C28.8096 33.3037 28.9414 32.4336 29.2051 31.666C29.4688 30.8984 29.8379 30.2451 30.3125 29.7061C30.7871 29.1611 31.3525 28.7451 32.0088 28.458C32.6709 28.1709 33.3975 28.0273 34.1885 28.0273C34.9912 28.0273 35.7207 28.1709 36.377 28.458C37.0332 28.7451 37.5986 29.1611 38.0732 29.7061C38.5537 30.2451 38.9229 30.8984 39.1807 31.666C39.4443 32.4336 39.5762 33.3037 39.5762 34.2764ZM37.1328 34.9355V34.2588C37.1328 33.5615 37.0684 32.9492 36.9395 32.4219C36.8105 31.8887 36.6201 31.4404 36.3682 31.0771C36.1162 30.7139 35.8057 30.4414 35.4365 30.2598C35.0674 30.0723 34.6514 29.9785 34.1885 29.9785C33.7197 29.9785 33.3037 30.0723 32.9404 30.2598C32.583 30.4414 32.2783 30.7139 32.0264 31.0771C31.7744 31.4404 31.5811 31.8887 31.4463 32.4219C31.3174 32.9492 31.2529 33.5615 31.2529 34.2588V34.9355C31.2529 35.627 31.3174 36.2393 31.4463 36.7725C31.5811 37.3057 31.7744 37.7568 32.0264 38.126C32.2842 38.4893 32.5947 38.7646 32.958 38.9521C33.3213 39.1396 33.7373 39.2334 34.2061 39.2334C34.6748 39.2334 35.0908 39.1396 35.4541 38.9521C35.8174 38.7646 36.1221 38.4893 36.3682 38.126C36.6201 37.7568 36.8105 37.3057 36.9395 36.7725C37.0684 36.2393 37.1328 35.627 37.1328 34.9355ZM46.8447 37.1152V28.2031H49.2617V37.1152C49.2617 37.9648 49.0771 38.6943 48.708 39.3037C48.3389 39.9072 47.835 40.3701 47.1963 40.6924C46.5576 41.0146 45.8369 41.1758 45.0342 41.1758C44.208 41.1758 43.4756 41.0381 42.8369 40.7627C42.1982 40.4814 41.6973 40.0537 41.334 39.4795C40.9766 38.9053 40.7979 38.1758 40.7979 37.291H43.2236C43.2236 37.7715 43.2969 38.1582 43.4434 38.4512C43.5898 38.7441 43.7979 38.9551 44.0674 39.084C44.3428 39.2129 44.665 39.2773 45.0342 39.2773C45.3916 39.2773 45.7051 39.1953 45.9746 39.0312C46.25 38.8613 46.4639 38.6152 46.6162 38.293C46.7686 37.9707 46.8447 37.5781 46.8447 37.1152ZM60.1426 39.1016V41H53.3398V39.1016H60.1426ZM54.0781 28.2031V41H51.6611V28.2031H54.0781ZM59.2549 33.4854V35.3398H53.3398V33.4854H59.2549ZM60.1162 28.2031V30.1104H53.3398V28.2031H60.1162ZM69.3096 36.79H71.7266C71.6621 37.6455 71.4248 38.4043 71.0146 39.0664C70.6045 39.7227 70.0332 40.2383 69.3008 40.6133C68.5684 40.9883 67.6807 41.1758 66.6377 41.1758C65.835 41.1758 65.1113 41.0352 64.4668 40.7539C63.8281 40.4668 63.2803 40.0596 62.8232 39.5322C62.3721 38.999 62.0264 38.3604 61.7861 37.6162C61.5459 36.8662 61.4258 36.0254 61.4258 35.0938V34.1182C61.4258 33.1865 61.5488 32.3457 61.7949 31.5957C62.041 30.8457 62.3926 30.207 62.8496 29.6797C63.3125 29.1465 63.8662 28.7363 64.5107 28.4492C65.1611 28.1621 65.8877 28.0186 66.6904 28.0186C67.7334 28.0186 68.6152 28.2119 69.3359 28.5986C70.0566 28.9795 70.6162 29.5039 71.0146 30.1719C71.4131 30.8398 71.6533 31.6074 71.7354 32.4746H69.3184C69.2715 31.9355 69.1543 31.4785 68.9668 31.1035C68.7852 30.7285 68.5098 30.4443 68.1406 30.251C67.7773 30.0518 67.2939 29.9521 66.6904 29.9521C66.2217 29.9521 65.8086 30.04 65.4512 30.2158C65.0996 30.3916 64.8066 30.6553 64.5723 31.0068C64.3379 31.3525 64.1621 31.7861 64.0449 32.3076C63.9277 32.8232 63.8691 33.4209 63.8691 34.1006V35.0938C63.8691 35.7441 63.9219 36.3271 64.0273 36.8428C64.1328 37.3584 64.2969 37.7949 64.5195 38.1523C64.7422 38.5098 65.0293 38.7822 65.3809 38.9697C65.7324 39.1572 66.1514 39.251 66.6377 39.251C67.2295 39.251 67.71 39.1572 68.0791 38.9697C68.4541 38.7822 68.7383 38.5068 68.9316 38.1436C69.1309 37.7803 69.2568 37.3291 69.3096 36.79ZM78.8281 28.2031V41H76.4199V28.2031H78.8281ZM82.8008 28.2031V30.1104H72.4912V28.2031H82.8008Z" fill="#33DC24"/>
</svg>
