<svg width="88" height="45" viewBox="0 0 88 45" fill="none" xmlns="http://www.w3.org/2000/svg">
<rect width="86" height="45" fill="#D4B930"/>
<rect x="1" y="1" width="84" height="43" fill="#171612"/>
<path d="M34.9521 6.20312V19H32.5264L27.0859 10.123V19H24.6689V6.20312H27.0859L32.5439 15.0889V6.20312H34.9521ZM45.8945 17.1016V19H39.0918V17.1016H45.8945ZM39.8301 6.20312V19H37.4131V6.20312H39.8301ZM45.0068 11.4854V13.3398H39.0918V11.4854H45.0068ZM45.8682 6.20312V8.11035H39.0918V6.20312H45.8682ZM50.7197 16.5479L53.2686 6.20312H54.6484L54.7363 8.38281L52.0117 19H50.5527L50.7197 16.5479ZM49.1113 6.20312L51.2031 16.5127V19H49.6123L46.7119 6.20312H49.1113ZM57.3818 16.4688L59.4385 6.20312H61.8467L58.9463 19H57.3555L57.3818 16.4688ZM55.3076 6.20312L57.8564 16.583L58.0059 19H56.5469L53.8311 8.37402L53.9365 6.20312H55.3076ZM15.0449 40H12.2852L12.3027 38.1016H15.0449C15.7891 38.1016 16.4131 37.9375 16.917 37.6094C17.4209 37.2754 17.8018 36.7979 18.0596 36.1768C18.3174 35.5498 18.4463 34.7998 18.4463 33.9268V33.2676C18.4463 32.5938 18.373 31.999 18.2266 31.4834C18.0801 30.9678 17.8633 30.5342 17.5762 30.1826C17.2949 29.8311 16.9463 29.5645 16.5303 29.3828C16.1143 29.2012 15.6367 29.1104 15.0977 29.1104H12.2324V27.2031H15.0977C15.9531 27.2031 16.7324 27.3467 17.4355 27.6338C18.1445 27.9209 18.7568 28.334 19.2725 28.873C19.7939 29.4062 20.1924 30.0449 20.4678 30.7891C20.749 31.5332 20.8896 32.3652 20.8896 33.2852V33.9268C20.8896 34.8408 20.749 35.6729 20.4678 36.4229C20.1924 37.167 19.7939 37.8057 19.2725 38.3389C18.7568 38.8721 18.1416 39.2822 17.4268 39.5693C16.7119 39.8564 15.918 40 15.0449 40ZM13.6387 27.2031V40H11.2217V27.2031H13.6387ZM31.4277 38.1016V40H24.625V38.1016H31.4277ZM25.3633 27.2031V40H22.9463V27.2031H25.3633ZM30.54 32.4854V34.3398H24.625V32.4854H30.54ZM31.4014 27.2031V29.1104H24.625V27.2031H31.4014ZM37.6064 37.4951L40.7969 27.2031H43.4775L38.96 40H37.1758L37.6064 37.4951ZM34.6621 27.2031L37.835 37.4951L38.292 40H36.4902L31.9902 27.2031H34.6621ZM47.3711 27.2031V40H44.9541V27.2031H47.3711ZM57.4697 35.79H59.8867C59.8223 36.6455 59.585 37.4043 59.1748 38.0664C58.7646 38.7227 58.1934 39.2383 57.4609 39.6133C56.7285 39.9883 55.8408 40.1758 54.7979 40.1758C53.9951 40.1758 53.2715 40.0352 52.627 39.7539C51.9883 39.4668 51.4404 39.0596 50.9834 38.5322C50.5322 37.999 50.1865 37.3604 49.9463 36.6162C49.7061 35.8662 49.5859 35.0254 49.5859 34.0938V33.1182C49.5859 32.1865 49.709 31.3457 49.9551 30.5957C50.2012 29.8457 50.5527 29.207 51.0098 28.6797C51.4727 28.1465 52.0264 27.7363 52.6709 27.4492C53.3213 27.1621 54.0479 27.0186 54.8506 27.0186C55.8936 27.0186 56.7754 27.2119 57.4961 27.5986C58.2168 27.9795 58.7764 28.5039 59.1748 29.1719C59.5732 29.8398 59.8135 30.6074 59.8955 31.4746H57.4785C57.4316 30.9355 57.3145 30.4785 57.127 30.1035C56.9453 29.7285 56.6699 29.4443 56.3008 29.251C55.9375 29.0518 55.4541 28.9521 54.8506 28.9521C54.3818 28.9521 53.9688 29.04 53.6113 29.2158C53.2598 29.3916 52.9668 29.6553 52.7324 30.0068C52.498 30.3525 52.3223 30.7861 52.2051 31.3076C52.0879 31.8232 52.0293 32.4209 52.0293 33.1006V34.0938C52.0293 34.7441 52.082 35.3271 52.1875 35.8428C52.293 36.3584 52.457 36.7949 52.6797 37.1523C52.9023 37.5098 53.1895 37.7822 53.541 37.9697C53.8926 38.1572 54.3115 38.251 54.7979 38.251C55.3896 38.251 55.8701 38.1572 56.2393 37.9697C56.6143 37.7822 56.8984 37.5068 57.0918 37.1436C57.291 36.7803 57.417 36.3291 57.4697 35.79ZM70.2402 38.1016V40H63.4375V38.1016H70.2402ZM64.1758 27.2031V40H61.7588V27.2031H64.1758ZM69.3525 32.4854V34.3398H63.4375V32.4854H69.3525ZM70.2139 27.2031V29.1104H63.4375V27.2031H70.2139Z" fill="#D4B930"/>
</svg>
