<svg width="89" height="47" viewBox="0 0 89 47" fill="none" xmlns="http://www.w3.org/2000/svg">
<rect width="88" height="47" fill="#D4B930"/>
<rect x="2" y="2" width="84" height="43" fill="#171612"/>
<path d="M35.9521 7.20312V20H33.5264L28.0859 11.123V20H25.6689V7.20312H28.0859L33.5439 16.0889V7.20312H35.9521ZM46.8945 18.1016V20H40.0918V18.1016H46.8945ZM40.8301 7.20312V20H38.4131V7.20312H40.8301ZM46.0068 12.4854V14.3398H40.0918V12.4854H46.0068ZM46.8682 7.20312V9.11035H40.0918V7.20312H46.8682ZM51.7197 17.5479L54.2686 7.20312H55.6484L55.7363 9.38281L53.0117 20H51.5527L51.7197 17.5479ZM50.1113 7.20312L52.2031 17.5127V20H50.6123L47.7119 7.20312H50.1113ZM58.3818 17.4688L60.4385 7.20312H62.8467L59.9463 20H58.3555L58.3818 17.4688ZM56.3076 7.20312L58.8564 17.583L59.0059 20H57.5469L54.8311 9.37402L54.9365 7.20312H56.3076ZM16.0449 41H13.2852L13.3027 39.1016H16.0449C16.7891 39.1016 17.4131 38.9375 17.917 38.6094C18.4209 38.2754 18.8018 37.7979 19.0596 37.1768C19.3174 36.5498 19.4463 35.7998 19.4463 34.9268V34.2676C19.4463 33.5938 19.373 32.999 19.2266 32.4834C19.0801 31.9678 18.8633 31.5342 18.5762 31.1826C18.2949 30.8311 17.9463 30.5645 17.5303 30.3828C17.1143 30.2012 16.6367 30.1104 16.0977 30.1104H13.2324V28.2031H16.0977C16.9531 28.2031 17.7324 28.3467 18.4355 28.6338C19.1445 28.9209 19.7568 29.334 20.2725 29.873C20.7939 30.4062 21.1924 31.0449 21.4678 31.7891C21.749 32.5332 21.8896 33.3652 21.8896 34.2852V34.9268C21.8896 35.8408 21.749 36.6729 21.4678 37.4229C21.1924 38.167 20.7939 38.8057 20.2725 39.3389C19.7568 39.8721 19.1416 40.2822 18.4268 40.5693C17.7119 40.8564 16.918 41 16.0449 41ZM14.6387 28.2031V41H12.2217V28.2031H14.6387ZM32.4277 39.1016V41H25.625V39.1016H32.4277ZM26.3633 28.2031V41H23.9463V28.2031H26.3633ZM31.54 33.4854V35.3398H25.625V33.4854H31.54ZM32.4014 28.2031V30.1104H25.625V28.2031H32.4014ZM38.6064 38.4951L41.7969 28.2031H44.4775L39.96 41H38.1758L38.6064 38.4951ZM35.6621 28.2031L38.835 38.4951L39.292 41H37.4902L32.9902 28.2031H35.6621ZM48.3711 28.2031V41H45.9541V28.2031H48.3711ZM58.4697 36.79H60.8867C60.8223 37.6455 60.585 38.4043 60.1748 39.0664C59.7646 39.7227 59.1934 40.2383 58.4609 40.6133C57.7285 40.9883 56.8408 41.1758 55.7979 41.1758C54.9951 41.1758 54.2715 41.0352 53.627 40.7539C52.9883 40.4668 52.4404 40.0596 51.9834 39.5322C51.5322 38.999 51.1865 38.3604 50.9463 37.6162C50.7061 36.8662 50.5859 36.0254 50.5859 35.0938V34.1182C50.5859 33.1865 50.709 32.3457 50.9551 31.5957C51.2012 30.8457 51.5527 30.207 52.0098 29.6797C52.4727 29.1465 53.0264 28.7363 53.6709 28.4492C54.3213 28.1621 55.0479 28.0186 55.8506 28.0186C56.8936 28.0186 57.7754 28.2119 58.4961 28.5986C59.2168 28.9795 59.7764 29.5039 60.1748 30.1719C60.5732 30.8398 60.8135 31.6074 60.8955 32.4746H58.4785C58.4316 31.9355 58.3145 31.4785 58.127 31.1035C57.9453 30.7285 57.6699 30.4443 57.3008 30.251C56.9375 30.0518 56.4541 29.9521 55.8506 29.9521C55.3818 29.9521 54.9688 30.04 54.6113 30.2158C54.2598 30.3916 53.9668 30.6553 53.7324 31.0068C53.498 31.3525 53.3223 31.7861 53.2051 32.3076C53.0879 32.8232 53.0293 33.4209 53.0293 34.1006V35.0938C53.0293 35.7441 53.082 36.3271 53.1875 36.8428C53.293 37.3584 53.457 37.7949 53.6797 38.1523C53.9023 38.5098 54.1895 38.7822 54.541 38.9697C54.8926 39.1572 55.3115 39.251 55.7979 39.251C56.3896 39.251 56.8701 39.1572 57.2393 38.9697C57.6143 38.7822 57.8984 38.5068 58.0918 38.1436C58.291 37.7803 58.417 37.3291 58.4697 36.79ZM71.2402 39.1016V41H64.4375V39.1016H71.2402ZM65.1758 28.2031V41H62.7588V28.2031H65.1758ZM70.3525 33.4854V35.3398H64.4375V33.4854H70.3525ZM71.2139 28.2031V30.1104H64.4375V28.2031H71.2139Z" fill="#33DC24"/>
</svg>
