<svg width="88" height="47" viewBox="0 0 88 47" fill="none" xmlns="http://www.w3.org/2000/svg">
<rect width="88" height="47" fill="#D4B930"/>
<rect x="2" y="2" width="84" height="43" fill="#171612"/>
<path d="M31.4697 8.20312V21H29.0439L23.6035 12.123V21H21.1865V8.20312H23.6035L29.0615 17.0889V8.20312H31.4697ZM42.4121 19.1016V21H35.6094V19.1016H42.4121ZM36.3477 8.20312V21H33.9307V8.20312H36.3477ZM41.5244 13.4854V15.3398H35.6094V13.4854H41.5244ZM42.3857 8.20312V10.1104H35.6094V8.20312H42.3857ZM47.2373 18.5479L49.7861 8.20312H51.166L51.2539 10.3828L48.5293 21H47.0703L47.2373 18.5479ZM45.6289 8.20312L47.7207 18.5127V21H46.1299L43.2295 8.20312H45.6289ZM53.8994 18.4688L55.9561 8.20312H58.3643L55.4639 21H53.873L53.8994 18.4688ZM51.8252 8.20312L54.374 18.583L54.5234 21H53.0645L50.3486 10.374L50.4541 8.20312H51.8252ZM26.2402 29.2031V42H23.832V29.2031H26.2402ZM30.2129 29.2031V31.1104H19.9033V29.2031H30.2129ZM36.0137 31.1455L32.3662 42H29.8086L34.5898 29.2031H36.2246L36.0137 31.1455ZM39.0635 42L35.3984 31.1455L35.1787 29.2031H36.8223L41.6299 42H39.0635ZM38.8965 37.2451V39.1523H32.0322V37.2451H38.8965ZM52.7744 35.3818V40.3652C52.5869 40.6055 52.291 40.8662 51.8867 41.1475C51.4883 41.4287 50.9668 41.6719 50.3223 41.877C49.6777 42.0762 48.8867 42.1758 47.9492 42.1758C47.1348 42.1758 46.3906 42.041 45.7168 41.7715C45.043 41.4961 44.4629 41.0947 43.9766 40.5674C43.4902 40.04 43.1152 39.3955 42.8516 38.6338C42.5879 37.8721 42.4561 37.002 42.4561 36.0234V35.1797C42.4561 34.2012 42.5791 33.3311 42.8252 32.5693C43.0771 31.8076 43.4346 31.1631 43.8975 30.6357C44.3662 30.1084 44.9258 29.707 45.5762 29.4316C46.2324 29.1562 46.9648 29.0186 47.7734 29.0186C48.8574 29.0186 49.748 29.1973 50.4453 29.5547C51.1484 29.9121 51.6875 30.4043 52.0625 31.0312C52.4375 31.6523 52.6719 32.3672 52.7656 33.1758H50.4102C50.3457 32.7305 50.2168 32.3408 50.0234 32.0068C49.8301 31.667 49.5547 31.4033 49.1973 31.2158C48.8457 31.0225 48.3887 30.9258 47.8262 30.9258C47.3516 30.9258 46.9326 31.0195 46.5693 31.207C46.2061 31.3945 45.9014 31.667 45.6553 32.0244C45.4092 32.3818 45.2217 32.8242 45.0928 33.3516C44.9697 33.8789 44.9082 34.4824 44.9082 35.1621V36.0234C44.9082 36.709 44.9785 37.3184 45.1191 37.8516C45.2598 38.3789 45.4619 38.8242 45.7256 39.1875C45.9951 39.5449 46.3262 39.8174 46.7188 40.0049C47.1172 40.1865 47.5684 40.2773 48.0723 40.2773C48.5293 40.2773 48.9072 40.2393 49.2061 40.1631C49.5107 40.0811 49.7539 39.9844 49.9355 39.873C50.1172 39.7617 50.2578 39.6533 50.3574 39.5479V37.1484H47.8174V35.3818H52.7744ZM61.7568 38.6777C61.7568 38.4316 61.7188 38.2119 61.6426 38.0186C61.5723 37.8193 61.4404 37.6406 61.2471 37.4824C61.0596 37.3184 60.793 37.1602 60.4473 37.0078C60.1074 36.8496 59.668 36.6855 59.1289 36.5156C58.5312 36.3281 57.9746 36.1172 57.459 35.8828C56.9434 35.6484 56.4893 35.376 56.0967 35.0654C55.71 34.7549 55.4082 34.3975 55.1914 33.9932C54.9746 33.583 54.8662 33.1084 54.8662 32.5693C54.8662 32.042 54.9775 31.5615 55.2002 31.1279C55.4287 30.6943 55.751 30.3223 56.167 30.0117C56.583 29.6953 57.0723 29.4521 57.6348 29.2822C58.2031 29.1123 58.8301 29.0273 59.5156 29.0273C60.4648 29.0273 61.2852 29.2002 61.9766 29.5459C62.6738 29.8916 63.2129 30.3604 63.5938 30.9521C63.9746 31.5439 64.165 32.209 64.165 32.9473H61.7568C61.7568 32.5488 61.6719 32.1973 61.502 31.8926C61.3379 31.5879 61.0859 31.3477 60.7461 31.1719C60.4121 30.9961 59.9902 30.9082 59.4805 30.9082C58.9883 30.9082 58.5781 30.9814 58.25 31.1279C57.9277 31.2744 57.6846 31.4736 57.5205 31.7256C57.3623 31.9775 57.2832 32.2588 57.2832 32.5693C57.2832 32.8037 57.3389 33.0146 57.4502 33.2021C57.5615 33.3838 57.7285 33.5566 57.9512 33.7207C58.1738 33.8789 58.4492 34.0283 58.7773 34.1689C59.1113 34.3037 59.498 34.4385 59.9375 34.5732C60.6406 34.7842 61.2559 35.0186 61.7832 35.2764C62.3164 35.5342 62.7588 35.8271 63.1104 36.1553C63.4678 36.4834 63.7344 36.8525 63.9102 37.2627C64.0918 37.6729 64.1826 38.1387 64.1826 38.6602C64.1826 39.2109 64.0742 39.7031 63.8574 40.1367C63.6406 40.5703 63.3301 40.9395 62.9258 41.2441C62.5215 41.5488 62.0352 41.7803 61.4668 41.9385C60.9043 42.0967 60.2744 42.1758 59.5771 42.1758C58.9561 42.1758 58.3408 42.0938 57.7314 41.9297C57.1279 41.7598 56.5801 41.5078 56.0879 41.1738C55.5957 40.834 55.2031 40.4062 54.9102 39.8906C54.6172 39.3691 54.4707 38.7598 54.4707 38.0625H56.8965C56.8965 38.4668 56.9609 38.8125 57.0898 39.0996C57.2246 39.3809 57.4121 39.6123 57.6523 39.7939C57.8984 39.9697 58.1855 40.0986 58.5137 40.1807C58.8418 40.2627 59.1963 40.3037 59.5771 40.3037C60.0693 40.3037 60.4736 40.2363 60.79 40.1016C61.1123 39.9609 61.3525 39.7676 61.5107 39.5215C61.6748 39.2754 61.7568 38.9941 61.7568 38.6777Z" fill="#33DC24"/>
</svg>
