<svg width="86" height="45" viewBox="0 0 86 45" fill="none" xmlns="http://www.w3.org/2000/svg">
<rect width="86" height="45" fill="#D4B930"/>
<rect x="1" y="1" width="84" height="43" fill="#171612"/>
<path d="M34.4346 5.20312V18H32.0088L26.5684 9.12305V18H24.1514V5.20312H26.5684L32.0264 14.0889V5.20312H34.4346ZM45.377 16.1016V18H38.5742V16.1016H45.377ZM39.3125 5.20312V18H36.8955V5.20312H39.3125ZM44.4893 10.4854V12.3398H38.5742V10.4854H44.4893ZM45.3506 5.20312V7.11035H38.5742V5.20312H45.3506ZM50.2021 15.5479L52.751 5.20312H54.1309L54.2188 7.38281L51.4941 18H50.0352L50.2021 15.5479ZM48.5938 5.20312L50.6855 15.5127V18H49.0947L46.1943 5.20312H48.5938ZM56.8643 15.4688L58.9209 5.20312H61.3291L58.4287 18H56.8379L56.8643 15.4688ZM54.79 5.20312L57.3389 15.583L57.4883 18H56.0293L53.3135 7.37402L53.4189 5.20312H54.79ZM11.1436 34.333H7.84766V32.4346H11.1436C11.6826 32.4346 12.1191 32.3467 12.4531 32.1709C12.793 31.9893 13.042 31.7432 13.2002 31.4326C13.3584 31.1162 13.4375 30.7559 13.4375 30.3516C13.4375 29.959 13.3584 29.5928 13.2002 29.2529C13.042 28.9131 12.793 28.6377 12.4531 28.4268C12.1191 28.2158 11.6826 28.1104 11.1436 28.1104H8.63867V39H6.22168V26.2031H11.1436C12.1396 26.2031 12.9893 26.3818 13.6924 26.7393C14.4014 27.0908 14.9404 27.5801 15.3096 28.207C15.6846 28.8281 15.8721 29.5371 15.8721 30.334C15.8721 31.1602 15.6846 31.8721 15.3096 32.4697C14.9404 33.0674 14.4014 33.5273 13.6924 33.8496C12.9893 34.1719 12.1396 34.333 11.1436 34.333ZM17.7705 26.2031H22.4199C23.3926 26.2031 24.2275 26.3496 24.9248 26.6426C25.6221 26.9355 26.1582 27.3691 26.5332 27.9434C26.9082 28.5176 27.0957 29.2236 27.0957 30.0615C27.0957 30.7236 26.9785 31.2979 26.7441 31.7842C26.5098 32.2705 26.1787 32.6777 25.751 33.0059C25.3291 33.334 24.8311 33.5918 24.2568 33.7793L23.501 34.166H19.3965L19.3789 32.2588H22.4463C22.9443 32.2588 23.3574 32.1709 23.6855 31.9951C24.0137 31.8193 24.2598 31.5762 24.4238 31.2656C24.5938 30.9551 24.6787 30.6006 24.6787 30.2021C24.6787 29.7744 24.5967 29.4053 24.4326 29.0947C24.2686 28.7783 24.0195 28.5352 23.6855 28.3652C23.3516 28.1953 22.9297 28.1104 22.4199 28.1104H20.1875V39H17.7705V26.2031ZM24.9951 39L22.0332 33.2695L24.5908 33.2607L27.5879 38.877V39H24.9951ZM39.5762 32.2764V32.9355C39.5762 33.9023 39.4473 34.7725 39.1895 35.5459C38.9316 36.3135 38.5654 36.9668 38.0908 37.5059C37.6162 38.0449 37.0508 38.458 36.3945 38.7451C35.7383 39.0322 35.0088 39.1758 34.2061 39.1758C33.415 39.1758 32.6885 39.0322 32.0264 38.7451C31.3701 38.458 30.8018 38.0449 30.3213 37.5059C29.8408 36.9668 29.4688 36.3135 29.2051 35.5459C28.9414 34.7725 28.8096 33.9023 28.8096 32.9355V32.2764C28.8096 31.3037 28.9414 30.4336 29.2051 29.666C29.4688 28.8984 29.8379 28.2451 30.3125 27.7061C30.7871 27.1611 31.3525 26.7451 32.0088 26.458C32.6709 26.1709 33.3975 26.0273 34.1885 26.0273C34.9912 26.0273 35.7207 26.1709 36.377 26.458C37.0332 26.7451 37.5986 27.1611 38.0732 27.7061C38.5537 28.2451 38.9229 28.8984 39.1807 29.666C39.4443 30.4336 39.5762 31.3037 39.5762 32.2764ZM37.1328 32.9355V32.2588C37.1328 31.5615 37.0684 30.9492 36.9395 30.4219C36.8105 29.8887 36.6201 29.4404 36.3682 29.0771C36.1162 28.7139 35.8057 28.4414 35.4365 28.2598C35.0674 28.0723 34.6514 27.9785 34.1885 27.9785C33.7197 27.9785 33.3037 28.0723 32.9404 28.2598C32.583 28.4414 32.2783 28.7139 32.0264 29.0771C31.7744 29.4404 31.5811 29.8887 31.4463 30.4219C31.3174 30.9492 31.2529 31.5615 31.2529 32.2588V32.9355C31.2529 33.627 31.3174 34.2393 31.4463 34.7725C31.5811 35.3057 31.7744 35.7568 32.0264 36.126C32.2842 36.4893 32.5947 36.7646 32.958 36.9521C33.3213 37.1396 33.7373 37.2334 34.2061 37.2334C34.6748 37.2334 35.0908 37.1396 35.4541 36.9521C35.8174 36.7646 36.1221 36.4893 36.3682 36.126C36.6201 35.7568 36.8105 35.3057 36.9395 34.7725C37.0684 34.2393 37.1328 33.627 37.1328 32.9355ZM46.8447 35.1152V26.2031H49.2617V35.1152C49.2617 35.9648 49.0771 36.6943 48.708 37.3037C48.3389 37.9072 47.835 38.3701 47.1963 38.6924C46.5576 39.0146 45.8369 39.1758 45.0342 39.1758C44.208 39.1758 43.4756 39.0381 42.8369 38.7627C42.1982 38.4814 41.6973 38.0537 41.334 37.4795C40.9766 36.9053 40.7979 36.1758 40.7979 35.291H43.2236C43.2236 35.7715 43.2969 36.1582 43.4434 36.4512C43.5898 36.7441 43.7979 36.9551 44.0674 37.084C44.3428 37.2129 44.665 37.2773 45.0342 37.2773C45.3916 37.2773 45.7051 37.1953 45.9746 37.0312C46.25 36.8613 46.4639 36.6152 46.6162 36.293C46.7686 35.9707 46.8447 35.5781 46.8447 35.1152ZM60.1426 37.1016V39H53.3398V37.1016H60.1426ZM54.0781 26.2031V39H51.6611V26.2031H54.0781ZM59.2549 31.4854V33.3398H53.3398V31.4854H59.2549ZM60.1162 26.2031V28.1104H53.3398V26.2031H60.1162ZM69.3096 34.79H71.7266C71.6621 35.6455 71.4248 36.4043 71.0146 37.0664C70.6045 37.7227 70.0332 38.2383 69.3008 38.6133C68.5684 38.9883 67.6807 39.1758 66.6377 39.1758C65.835 39.1758 65.1113 39.0352 64.4668 38.7539C63.8281 38.4668 63.2803 38.0596 62.8232 37.5322C62.3721 36.999 62.0264 36.3604 61.7861 35.6162C61.5459 34.8662 61.4258 34.0254 61.4258 33.0938V32.1182C61.4258 31.1865 61.5488 30.3457 61.7949 29.5957C62.041 28.8457 62.3926 28.207 62.8496 27.6797C63.3125 27.1465 63.8662 26.7363 64.5107 26.4492C65.1611 26.1621 65.8877 26.0186 66.6904 26.0186C67.7334 26.0186 68.6152 26.2119 69.3359 26.5986C70.0566 26.9795 70.6162 27.5039 71.0146 28.1719C71.4131 28.8398 71.6533 29.6074 71.7354 30.4746H69.3184C69.2715 29.9355 69.1543 29.4785 68.9668 29.1035C68.7852 28.7285 68.5098 28.4443 68.1406 28.251C67.7773 28.0518 67.2939 27.9521 66.6904 27.9521C66.2217 27.9521 65.8086 28.04 65.4512 28.2158C65.0996 28.3916 64.8066 28.6553 64.5723 29.0068C64.3379 29.3525 64.1621 29.7861 64.0449 30.3076C63.9277 30.8232 63.8691 31.4209 63.8691 32.1006V33.0938C63.8691 33.7441 63.9219 34.3271 64.0273 34.8428C64.1328 35.3584 64.2969 35.7949 64.5195 36.1523C64.7422 36.5098 65.0293 36.7822 65.3809 36.9697C65.7324 37.1572 66.1514 37.251 66.6377 37.251C67.2295 37.251 67.71 37.1572 68.0791 36.9697C68.4541 36.7822 68.7383 36.5068 68.9316 36.1436C69.1309 35.7803 69.2568 35.3291 69.3096 34.79ZM78.8281 26.2031V39H76.4199V26.2031H78.8281ZM82.8008 26.2031V28.1104H72.4912V26.2031H82.8008Z" fill="#D4B930"/>
</svg>
