<svg width="86" height="45" viewBox="0 0 86 45" fill="none" xmlns="http://www.w3.org/2000/svg">
<rect width="86" height="45" fill="#D4B930"/>
<rect x="1" y="1" width="84" height="43" fill="#171612"/>
<path d="M33.9873 5.20312V18H31.5615L26.1211 9.12305V18H23.7041V5.20312H26.1211L31.5791 14.0889V5.20312H33.9873ZM44.9297 16.1016V18H38.127V16.1016H44.9297ZM38.8652 5.20312V18H36.4482V5.20312H38.8652ZM44.042 10.4854V12.3398H38.127V10.4854H44.042ZM44.9033 5.20312V7.11035H38.127V5.20312H44.9033ZM49.7549 15.5479L52.3037 5.20312H53.6836L53.7715 7.38281L51.0469 18H49.5879L49.7549 15.5479ZM48.1465 5.20312L50.2383 15.5127V18H48.6475L45.7471 5.20312H48.1465ZM56.417 15.4688L58.4736 5.20312H60.8818L57.9814 18H56.3906L56.417 15.4688ZM54.3428 5.20312L56.8916 15.583L57.041 18H55.582L52.8662 7.37402L52.9717 5.20312H54.3428ZM24.7148 26.2031V39H22.3066V26.2031H24.7148ZM28.6875 26.2031V28.1104H18.3779V26.2031H28.6875ZM34.4883 28.1455L30.8408 39H28.2832L33.0645 26.2031H34.6992L34.4883 28.1455ZM37.5381 39L33.873 28.1455L33.6533 26.2031H35.2969L40.1045 39H37.5381ZM37.3711 34.2451V36.1523H30.5068V34.2451H37.3711ZM51.249 32.3818V37.3652C51.0615 37.6055 50.7656 37.8662 50.3613 38.1475C49.9629 38.4287 49.4414 38.6719 48.7969 38.877C48.1523 39.0762 47.3613 39.1758 46.4238 39.1758C45.6094 39.1758 44.8652 39.041 44.1914 38.7715C43.5176 38.4961 42.9375 38.0947 42.4512 37.5674C41.9648 37.04 41.5898 36.3955 41.3262 35.6338C41.0625 34.8721 40.9307 34.002 40.9307 33.0234V32.1797C40.9307 31.2012 41.0537 30.3311 41.2998 29.5693C41.5518 28.8076 41.9092 28.1631 42.3721 27.6357C42.8408 27.1084 43.4004 26.707 44.0508 26.4316C44.707 26.1562 45.4395 26.0186 46.248 26.0186C47.332 26.0186 48.2227 26.1973 48.9199 26.5547C49.623 26.9121 50.1621 27.4043 50.5371 28.0312C50.9121 28.6523 51.1465 29.3672 51.2402 30.1758H48.8848C48.8203 29.7305 48.6914 29.3408 48.498 29.0068C48.3047 28.667 48.0293 28.4033 47.6719 28.2158C47.3203 28.0225 46.8633 27.9258 46.3008 27.9258C45.8262 27.9258 45.4072 28.0195 45.0439 28.207C44.6807 28.3945 44.376 28.667 44.1299 29.0244C43.8838 29.3818 43.6963 29.8242 43.5674 30.3516C43.4443 30.8789 43.3828 31.4824 43.3828 32.1621V33.0234C43.3828 33.709 43.4531 34.3184 43.5938 34.8516C43.7344 35.3789 43.9365 35.8242 44.2002 36.1875C44.4697 36.5449 44.8008 36.8174 45.1934 37.0049C45.5918 37.1865 46.043 37.2773 46.5469 37.2773C47.0039 37.2773 47.3818 37.2393 47.6807 37.1631C47.9854 37.0811 48.2285 36.9844 48.4102 36.873C48.5918 36.7617 48.7324 36.6533 48.832 36.5479V34.1484H46.292V32.3818H51.249ZM60.2314 35.6777C60.2314 35.4316 60.1934 35.2119 60.1172 35.0186C60.0469 34.8193 59.915 34.6406 59.7217 34.4824C59.5342 34.3184 59.2676 34.1602 58.9219 34.0078C58.582 33.8496 58.1426 33.6855 57.6035 33.5156C57.0059 33.3281 56.4492 33.1172 55.9336 32.8828C55.418 32.6484 54.9639 32.376 54.5713 32.0654C54.1846 31.7549 53.8828 31.3975 53.666 30.9932C53.4492 30.583 53.3408 30.1084 53.3408 29.5693C53.3408 29.042 53.4521 28.5615 53.6748 28.1279C53.9033 27.6943 54.2256 27.3223 54.6416 27.0117C55.0576 26.6953 55.5469 26.4521 56.1094 26.2822C56.6777 26.1123 57.3047 26.0273 57.9902 26.0273C58.9395 26.0273 59.7598 26.2002 60.4512 26.5459C61.1484 26.8916 61.6875 27.3604 62.0684 27.9521C62.4492 28.5439 62.6396 29.209 62.6396 29.9473H60.2314C60.2314 29.5488 60.1465 29.1973 59.9766 28.8926C59.8125 28.5879 59.5605 28.3477 59.2207 28.1719C58.8867 27.9961 58.4648 27.9082 57.9551 27.9082C57.4629 27.9082 57.0527 27.9814 56.7246 28.1279C56.4023 28.2744 56.1592 28.4736 55.9951 28.7256C55.8369 28.9775 55.7578 29.2588 55.7578 29.5693C55.7578 29.8037 55.8135 30.0146 55.9248 30.2021C56.0361 30.3838 56.2031 30.5566 56.4258 30.7207C56.6484 30.8789 56.9238 31.0283 57.252 31.1689C57.5859 31.3037 57.9727 31.4385 58.4121 31.5732C59.1152 31.7842 59.7305 32.0186 60.2578 32.2764C60.791 32.5342 61.2334 32.8271 61.585 33.1553C61.9424 33.4834 62.209 33.8525 62.3848 34.2627C62.5664 34.6729 62.6572 35.1387 62.6572 35.6602C62.6572 36.2109 62.5488 36.7031 62.332 37.1367C62.1152 37.5703 61.8047 37.9395 61.4004 38.2441C60.9961 38.5488 60.5098 38.7803 59.9414 38.9385C59.3789 39.0967 58.749 39.1758 58.0518 39.1758C57.4307 39.1758 56.8154 39.0938 56.2061 38.9297C55.6025 38.7598 55.0547 38.5078 54.5625 38.1738C54.0703 37.834 53.6777 37.4062 53.3848 36.8906C53.0918 36.3691 52.9453 35.7598 52.9453 35.0625H55.3711C55.3711 35.4668 55.4355 35.8125 55.5645 36.0996C55.6992 36.3809 55.8867 36.6123 56.127 36.7939C56.373 36.9697 56.6602 37.0986 56.9883 37.1807C57.3164 37.2627 57.6709 37.3037 58.0518 37.3037C58.5439 37.3037 58.9482 37.2363 59.2646 37.1016C59.5869 36.9609 59.8271 36.7676 59.9854 36.5215C60.1494 36.2754 60.2314 35.9941 60.2314 35.6777Z" fill="#D4B930"/>
</svg>
