<svg width="44" height="24" viewBox="0 0 44 24" fill="none" xmlns="http://www.w3.org/2000/svg">
<rect width="44" height="24" fill="#D4B930"/>
<rect x="1" y="1.02148" width="42" height="21.9574" fill="#171612"/>
<path d="M14.6699 7.46875V16H13.0527L9.42578 10.082V16H7.81445V7.46875H9.42578L13.0645 13.3926V7.46875H14.6699ZM21.9648 14.7344V16H17.4297V14.7344H21.9648ZM17.9219 7.46875V16H16.3105V7.46875H17.9219ZM21.373 10.9902V12.2266H17.4297V10.9902H21.373ZM21.9473 7.46875V8.74023H17.4297V7.46875H21.9473ZM24.3672 7.46875L26.0723 10.5098L27.7832 7.46875H29.6348L27.1035 11.6992L29.6992 16H27.8301L26.0723 12.9004L24.3203 16H22.4453L25.041 11.6992L22.5098 7.46875H24.3672ZM34.3516 7.46875V16H32.7461V7.46875H34.3516ZM37 7.46875V8.74023H30.127V7.46875H37Z" fill="#D4B930"/>
</svg>
