<svg width="88" height="47" viewBox="0 0 88 47" fill="none" xmlns="http://www.w3.org/2000/svg">
<rect width="88" height="47" fill="#D4B930"/>
<rect x="2" y="2" width="84" height="43" fill="#171612"/>
<path d="M5.22168 16.2017H9.87109C10.8438 16.2017 11.6787 16.3481 12.376 16.6411C13.0732 16.9341 13.6094 17.3677 13.9844 17.9419C14.3594 18.5161 14.5469 19.2222 14.5469 20.0601C14.5469 20.7222 14.4297 21.2964 14.1953 21.7827C13.9609 22.269 13.6299 22.6763 13.2021 23.0044C12.7803 23.3325 12.2822 23.5903 11.708 23.7778L10.9521 24.1646H6.84766L6.83008 22.2573H9.89746C10.3955 22.2573 10.8086 22.1694 11.1367 21.9937C11.4648 21.8179 11.7109 21.5747 11.875 21.2642C12.0449 20.9536 12.1299 20.5991 12.1299 20.2007C12.1299 19.7729 12.0479 19.4038 11.8838 19.0933C11.7197 18.7769 11.4707 18.5337 11.1367 18.3638C10.8027 18.1938 10.3809 18.1089 9.87109 18.1089H7.63867V28.9985H5.22168V16.2017ZM12.4463 28.9985L9.48438 23.2681L12.042 23.2593L15.0391 28.8755V28.9985H12.4463ZM23.7842 16.2017H26.2012V24.7007C26.2012 25.6792 25.9902 26.5024 25.5684 27.1704C25.1465 27.8325 24.5723 28.3335 23.8457 28.6733C23.1191 29.0073 22.293 29.1743 21.3672 29.1743C20.4297 29.1743 19.5947 29.0073 18.8623 28.6733C18.1299 28.3335 17.5557 27.8325 17.1396 27.1704C16.7236 26.5024 16.5156 25.6792 16.5156 24.7007V16.2017H18.9326V24.7007C18.9326 25.2983 19.0322 25.7876 19.2314 26.1685C19.4307 26.5435 19.7119 26.8218 20.0752 27.0034C20.4385 27.1851 20.8691 27.2759 21.3672 27.2759C21.8711 27.2759 22.3018 27.1851 22.6592 27.0034C23.0225 26.8218 23.3008 26.5435 23.4941 26.1685C23.6875 25.7876 23.7842 25.2983 23.7842 24.7007V16.2017ZM38.7783 16.2017V28.9985H36.3525L30.9121 20.1216V28.9985H28.4951V16.2017H30.9121L36.3701 25.0874V16.2017H38.7783ZM46.4688 16.2017V28.9985H44.0605V16.2017H46.4688ZM50.4414 16.2017V18.1089H40.1318V16.2017H50.4414ZM54.625 16.2017V28.9985H52.208V16.2017H54.625ZM58.29 16.2017H60.3818L63.8799 25.8345L67.3691 16.2017H69.4697L64.7148 28.9985H63.0361L58.29 16.2017ZM57.2354 16.2017H59.2832L59.6523 25.0522V28.9985H57.2354V16.2017ZM68.4678 16.2017H70.5244V28.9985H68.1074V25.0522L68.4678 16.2017ZM81.4668 27.1001V28.9985H74.6641V27.1001H81.4668ZM75.4023 16.2017V28.9985H72.9854V16.2017H75.4023ZM80.5791 21.4839V23.3384H74.6641V21.4839H80.5791ZM81.4404 16.2017V18.1089H74.6641V16.2017H81.4404Z" fill="#D4B930"/>
</svg>
