<svg width="88" height="47" viewBox="0 0 88 47" fill="none" xmlns="http://www.w3.org/2000/svg">
<rect width="88" height="47" fill="#D4B930"/>
<rect x="2" y="2" width="84" height="43" fill="#171612"/>
<path d="M6.22168 17.2031H10.8711C11.8438 17.2031 12.6787 17.3496 13.376 17.6426C14.0732 17.9355 14.6094 18.3691 14.9844 18.9434C15.3594 19.5176 15.5469 20.2236 15.5469 21.0615C15.5469 21.7236 15.4297 22.2979 15.1953 22.7842C14.9609 23.2705 14.6299 23.6777 14.2021 24.0059C13.7803 24.334 13.2822 24.5918 12.708 24.7793L11.9521 25.166H7.84766L7.83008 23.2588H10.8975C11.3955 23.2588 11.8086 23.1709 12.1367 22.9951C12.4648 22.8193 12.7109 22.5762 12.875 22.2656C13.0449 21.9551 13.1299 21.6006 13.1299 21.2021C13.1299 20.7744 13.0479 20.4053 12.8838 20.0947C12.7197 19.7783 12.4707 19.5352 12.1367 19.3652C11.8027 19.1953 11.3809 19.1104 10.8711 19.1104H8.63867V30H6.22168V17.2031ZM13.4463 30L10.4844 24.2695L13.042 24.2607L16.0391 29.877V30H13.4463ZM24.7842 17.2031H27.2012V25.7021C27.2012 26.6807 26.9902 27.5039 26.5684 28.1719C26.1465 28.834 25.5723 29.335 24.8457 29.6748C24.1191 30.0088 23.293 30.1758 22.3672 30.1758C21.4297 30.1758 20.5947 30.0088 19.8623 29.6748C19.1299 29.335 18.5557 28.834 18.1396 28.1719C17.7236 27.5039 17.5156 26.6807 17.5156 25.7021V17.2031H19.9326V25.7021C19.9326 26.2998 20.0322 26.7891 20.2314 27.1699C20.4307 27.5449 20.7119 27.8232 21.0752 28.0049C21.4385 28.1865 21.8691 28.2773 22.3672 28.2773C22.8711 28.2773 23.3018 28.1865 23.6592 28.0049C24.0225 27.8232 24.3008 27.5449 24.4941 27.1699C24.6875 26.7891 24.7842 26.2998 24.7842 25.7021V17.2031ZM39.7783 17.2031V30H37.3525L31.9121 21.123V30H29.4951V17.2031H31.9121L37.3701 26.0889V17.2031H39.7783ZM47.4688 17.2031V30H45.0605V17.2031H47.4688ZM51.4414 17.2031V19.1104H41.1318V17.2031H51.4414ZM55.625 17.2031V30H53.208V17.2031H55.625ZM59.29 17.2031H61.3818L64.8799 26.8359L68.3691 17.2031H70.4697L65.7148 30H64.0361L59.29 17.2031ZM58.2354 17.2031H60.2832L60.6523 26.0537V30H58.2354V17.2031ZM69.4678 17.2031H71.5244V30H69.1074V26.0537L69.4678 17.2031ZM82.4668 28.1016V30H75.6641V28.1016H82.4668ZM76.4023 17.2031V30H73.9854V17.2031H76.4023ZM81.5791 22.4854V24.3398H75.6641V22.4854H81.5791ZM82.4404 17.2031V19.1104H75.6641V17.2031H82.4404Z" fill="#33DC24"/>
</svg>
