<svg width="44" height="24" viewBox="0 0 44 24" fill="none" xmlns="http://www.w3.org/2000/svg">
<rect width="44" height="24" fill="#D4B930"/>
<rect x="1" y="1.02124" width="42" height="21.9574" fill="#171612"/>
<path d="M12.2793 13.7852C12.2793 13.6211 12.2539 13.4746 12.2031 13.3457C12.1562 13.2129 12.0684 13.0938 11.9395 12.9883C11.8145 12.8789 11.6367 12.7734 11.4062 12.6719C11.1797 12.5664 10.8867 12.457 10.5273 12.3438C10.1289 12.2188 9.75781 12.0781 9.41406 11.9219C9.07031 11.7656 8.76758 11.584 8.50586 11.377C8.24805 11.1699 8.04688 10.9316 7.90234 10.6621C7.75781 10.3887 7.68555 10.0723 7.68555 9.71289C7.68555 9.36133 7.75977 9.04102 7.9082 8.75195C8.06055 8.46289 8.27539 8.21484 8.55273 8.00781C8.83008 7.79688 9.15625 7.63477 9.53125 7.52148C9.91016 7.4082 10.3281 7.35156 10.7852 7.35156C11.418 7.35156 11.9648 7.4668 12.4258 7.69727C12.8906 7.92773 13.25 8.24023 13.5039 8.63477C13.7578 9.0293 13.8848 9.47266 13.8848 9.96484H12.2793C12.2793 9.69922 12.2227 9.46484 12.1094 9.26172C12 9.05859 11.832 8.89844 11.6055 8.78125C11.3828 8.66406 11.1016 8.60547 10.7617 8.60547C10.4336 8.60547 10.1602 8.6543 9.94141 8.75195C9.72656 8.84961 9.56445 8.98242 9.45508 9.15039C9.34961 9.31836 9.29688 9.50586 9.29688 9.71289C9.29688 9.86914 9.33398 10.0098 9.4082 10.1348C9.48242 10.2559 9.59375 10.3711 9.74219 10.4805C9.89062 10.5859 10.0742 10.6855 10.293 10.7793C10.5156 10.8691 10.7734 10.959 11.0664 11.0488C11.5352 11.1895 11.9453 11.3457 12.2969 11.5176C12.6523 11.6895 12.9473 11.8848 13.1816 12.1035C13.4199 12.3223 13.5977 12.5684 13.7148 12.8418C13.8359 13.1152 13.8965 13.4258 13.8965 13.7734C13.8965 14.1406 13.8242 14.4688 13.6797 14.7578C13.5352 15.0469 13.3281 15.293 13.0586 15.4961C12.7891 15.6992 12.4648 15.8535 12.0859 15.959C11.7109 16.0645 11.291 16.1172 10.8262 16.1172C10.4121 16.1172 10.002 16.0625 9.5957 15.9531C9.19336 15.8398 8.82812 15.6719 8.5 15.4492C8.17188 15.2227 7.91016 14.9375 7.71484 14.5938C7.51953 14.2461 7.42188 13.8398 7.42188 13.375H9.03906C9.03906 13.6445 9.08203 13.875 9.16797 14.0664C9.25781 14.2539 9.38281 14.4082 9.54297 14.5293C9.70703 14.6465 9.89844 14.7324 10.1172 14.7871C10.3359 14.8418 10.5723 14.8691 10.8262 14.8691C11.1543 14.8691 11.4238 14.8242 11.6348 14.7344C11.8496 14.6406 12.0098 14.5117 12.1152 14.3477C12.2246 14.1836 12.2793 13.9961 12.2793 13.7852ZM18.5312 8.76367L16.0996 16H14.3945L17.582 7.46875H18.6719L18.5312 8.76367ZM20.5645 16L18.1211 8.76367L17.9746 7.46875H19.0703L22.2754 16H20.5645ZM20.4531 12.8301V14.1016H15.877V12.8301H20.4531ZM25.6738 14.3301L27.8008 7.46875H29.5879L26.5762 16H25.3867L25.6738 14.3301ZM23.7109 7.46875L25.8262 14.3301L26.1309 16H24.9297L21.9297 7.46875H23.7109ZM36.1211 14.7344V16H31.5859V14.7344H36.1211ZM32.0781 7.46875V16H30.4668V7.46875H32.0781ZM35.5293 10.9902V12.2266H31.5859V10.9902H35.5293ZM36.1035 7.46875V8.74023H31.5859V7.46875H36.1035Z" fill="#33DC24"/>
</svg>
