<svg width="45" height="24" viewBox="0 0 45 24" fill="none" xmlns="http://www.w3.org/2000/svg">
<rect x="0.982422" width="44" height="24" fill="#D4B930"/>
<rect x="1.98242" y="1.02148" width="42" height="21.9574" fill="#171612"/>
<path d="M13.2617 14.7852C13.2617 14.6211 13.2363 14.4746 13.1855 14.3457C13.1387 14.2129 13.0508 14.0938 12.9219 13.9883C12.7969 13.8789 12.6191 13.7734 12.3887 13.6719C12.1621 13.5664 11.8691 13.457 11.5098 13.3438C11.1113 13.2188 10.7402 13.0781 10.3965 12.9219C10.0527 12.7656 9.75 12.584 9.48828 12.377C9.23047 12.1699 9.0293 11.9316 8.88477 11.6621C8.74023 11.3887 8.66797 11.0723 8.66797 10.7129C8.66797 10.3613 8.74219 10.041 8.89062 9.75195C9.04297 9.46289 9.25781 9.21484 9.53516 9.00781C9.8125 8.79688 10.1387 8.63477 10.5137 8.52148C10.8926 8.4082 11.3105 8.35156 11.7676 8.35156C12.4004 8.35156 12.9473 8.4668 13.4082 8.69727C13.873 8.92773 14.2324 9.24023 14.4863 9.63477C14.7402 10.0293 14.8672 10.4727 14.8672 10.9648H13.2617C13.2617 10.6992 13.2051 10.4648 13.0918 10.2617C12.9824 10.0586 12.8145 9.89844 12.5879 9.78125C12.3652 9.66406 12.084 9.60547 11.7441 9.60547C11.416 9.60547 11.1426 9.6543 10.9238 9.75195C10.709 9.84961 10.5469 9.98242 10.4375 10.1504C10.332 10.3184 10.2793 10.5059 10.2793 10.7129C10.2793 10.8691 10.3164 11.0098 10.3906 11.1348C10.4648 11.2559 10.5762 11.3711 10.7246 11.4805C10.873 11.5859 11.0566 11.6855 11.2754 11.7793C11.498 11.8691 11.7559 11.959 12.0488 12.0488C12.5176 12.1895 12.9277 12.3457 13.2793 12.5176C13.6348 12.6895 13.9297 12.8848 14.1641 13.1035C14.4023 13.3223 14.5801 13.5684 14.6973 13.8418C14.8184 14.1152 14.8789 14.4258 14.8789 14.7734C14.8789 15.1406 14.8066 15.4688 14.6621 15.7578C14.5176 16.0469 14.3105 16.293 14.041 16.4961C13.7715 16.6992 13.4473 16.8535 13.0684 16.959C12.6934 17.0645 12.2734 17.1172 11.8086 17.1172C11.3945 17.1172 10.9844 17.0625 10.5781 16.9531C10.1758 16.8398 9.81055 16.6719 9.48242 16.4492C9.1543 16.2227 8.89258 15.9375 8.69727 15.5938C8.50195 15.2461 8.4043 14.8398 8.4043 14.375H10.0215C10.0215 14.6445 10.0645 14.875 10.1504 15.0664C10.2402 15.2539 10.3652 15.4082 10.5254 15.5293C10.6895 15.6465 10.8809 15.7324 11.0996 15.7871C11.3184 15.8418 11.5547 15.8691 11.8086 15.8691C12.1367 15.8691 12.4062 15.8242 12.6172 15.7344C12.832 15.6406 12.9922 15.5117 13.0977 15.3477C13.207 15.1836 13.2617 14.9961 13.2617 14.7852ZM19.5137 9.76367L17.082 17H15.377L18.5645 8.46875H19.6543L19.5137 9.76367ZM21.5469 17L19.1035 9.76367L18.957 8.46875H20.0527L23.2578 17H21.5469ZM21.4355 13.8301V15.1016H16.8594V13.8301H21.4355ZM26.6562 15.3301L28.7832 8.46875H30.5703L27.5586 17H26.3691L26.6562 15.3301ZM24.6934 8.46875L26.8086 15.3301L27.1133 17H25.9121L22.9121 8.46875H24.6934ZM37.1035 15.7344V17H32.5684V15.7344H37.1035ZM33.0605 8.46875V17H31.4492V8.46875H33.0605ZM36.5117 11.9902V13.2266H32.5684V11.9902H36.5117ZM37.0859 8.46875V9.74023H32.5684V8.46875H37.0859Z" fill="#D4B930"/>
</svg>
