<svg width="88" height="48" viewBox="0 0 88 48" fill="none" xmlns="http://www.w3.org/2000/svg">
<rect y="0.00146484" width="88" height="47" fill="#D4B930"/>
<rect x="2" y="2.00146" width="84" height="43" fill="#171612"/>
<path d="M20.7148 16.2046V29.0015H18.3066V16.2046H20.7148ZM24.6875 16.2046V18.1118H14.3779V16.2046H24.6875ZM36.4121 22.2778V22.937C36.4121 23.9038 36.2832 24.7739 36.0254 25.5474C35.7676 26.3149 35.4014 26.9683 34.9268 27.5073C34.4521 28.0464 33.8867 28.4595 33.2305 28.7466C32.5742 29.0337 31.8447 29.1772 31.042 29.1772C30.251 29.1772 29.5244 29.0337 28.8623 28.7466C28.2061 28.4595 27.6377 28.0464 27.1572 27.5073C26.6768 26.9683 26.3047 26.3149 26.041 25.5474C25.7773 24.7739 25.6455 23.9038 25.6455 22.937V22.2778C25.6455 21.3052 25.7773 20.4351 26.041 19.6675C26.3047 18.8999 26.6738 18.2466 27.1484 17.7075C27.623 17.1626 28.1885 16.7466 28.8447 16.4595C29.5068 16.1724 30.2334 16.0288 31.0244 16.0288C31.8271 16.0288 32.5566 16.1724 33.2129 16.4595C33.8691 16.7466 34.4346 17.1626 34.9092 17.7075C35.3896 18.2466 35.7588 18.8999 36.0166 19.6675C36.2803 20.4351 36.4121 21.3052 36.4121 22.2778ZM33.9688 22.937V22.2603C33.9688 21.563 33.9043 20.9507 33.7754 20.4233C33.6465 19.8901 33.4561 19.4419 33.2041 19.0786C32.9521 18.7153 32.6416 18.4429 32.2725 18.2612C31.9033 18.0737 31.4873 17.98 31.0244 17.98C30.5557 17.98 30.1396 18.0737 29.7764 18.2612C29.4189 18.4429 29.1143 18.7153 28.8623 19.0786C28.6104 19.4419 28.417 19.8901 28.2822 20.4233C28.1533 20.9507 28.0889 21.563 28.0889 22.2603V22.937C28.0889 23.6284 28.1533 24.2407 28.2822 24.7739C28.417 25.3071 28.6104 25.7583 28.8623 26.1274C29.1201 26.4907 29.4307 26.7661 29.7939 26.9536C30.1572 27.1411 30.5732 27.2349 31.042 27.2349C31.5107 27.2349 31.9268 27.1411 32.29 26.9536C32.6533 26.7661 32.958 26.4907 33.2041 26.1274C33.4561 25.7583 33.6465 25.3071 33.7754 24.7739C33.9043 24.2407 33.9688 23.6284 33.9688 22.937ZM48.8223 22.2778V22.937C48.8223 23.9038 48.6934 24.7739 48.4355 25.5474C48.1777 26.3149 47.8115 26.9683 47.3369 27.5073C46.8623 28.0464 46.2969 28.4595 45.6406 28.7466C44.9844 29.0337 44.2549 29.1772 43.4521 29.1772C42.6611 29.1772 41.9346 29.0337 41.2725 28.7466C40.6162 28.4595 40.0479 28.0464 39.5674 27.5073C39.0869 26.9683 38.7148 26.3149 38.4512 25.5474C38.1875 24.7739 38.0557 23.9038 38.0557 22.937V22.2778C38.0557 21.3052 38.1875 20.4351 38.4512 19.6675C38.7148 18.8999 39.084 18.2466 39.5586 17.7075C40.0332 17.1626 40.5986 16.7466 41.2549 16.4595C41.917 16.1724 42.6436 16.0288 43.4346 16.0288C44.2373 16.0288 44.9668 16.1724 45.623 16.4595C46.2793 16.7466 46.8447 17.1626 47.3193 17.7075C47.7998 18.2466 48.1689 18.8999 48.4268 19.6675C48.6904 20.4351 48.8223 21.3052 48.8223 22.2778ZM46.3789 22.937V22.2603C46.3789 21.563 46.3145 20.9507 46.1855 20.4233C46.0566 19.8901 45.8662 19.4419 45.6143 19.0786C45.3623 18.7153 45.0518 18.4429 44.6826 18.2612C44.3135 18.0737 43.8975 17.98 43.4346 17.98C42.9658 17.98 42.5498 18.0737 42.1865 18.2612C41.8291 18.4429 41.5244 18.7153 41.2725 19.0786C41.0205 19.4419 40.8271 19.8901 40.6924 20.4233C40.5635 20.9507 40.499 21.563 40.499 22.2603V22.937C40.499 23.6284 40.5635 24.2407 40.6924 24.7739C40.8271 25.3071 41.0205 25.7583 41.2725 26.1274C41.5303 26.4907 41.8408 26.7661 42.2041 26.9536C42.5674 27.1411 42.9834 27.2349 43.4521 27.2349C43.9209 27.2349 44.3369 27.1411 44.7002 26.9536C45.0635 26.7661 45.3682 26.4907 45.6143 26.1274C45.8662 25.7583 46.0566 25.3071 46.1855 24.7739C46.3145 24.2407 46.3789 23.6284 46.3789 22.937ZM58.9912 27.103V29.0015H52.5576V27.103H58.9912ZM53.2871 16.2046V29.0015H50.8701V16.2046H53.2871ZM67.3057 25.6792C67.3057 25.4331 67.2676 25.2134 67.1914 25.02C67.1211 24.8208 66.9893 24.6421 66.7959 24.4839C66.6084 24.3198 66.3418 24.1616 65.9961 24.0093C65.6562 23.8511 65.2168 23.687 64.6777 23.5171C64.0801 23.3296 63.5234 23.1187 63.0078 22.8843C62.4922 22.6499 62.0381 22.3774 61.6455 22.0669C61.2588 21.7563 60.957 21.3989 60.7402 20.9946C60.5234 20.5845 60.415 20.1099 60.415 19.5708C60.415 19.0435 60.5264 18.563 60.749 18.1294C60.9775 17.6958 61.2998 17.3237 61.7158 17.0132C62.1318 16.6968 62.6211 16.4536 63.1836 16.2837C63.752 16.1138 64.3789 16.0288 65.0645 16.0288C66.0137 16.0288 66.834 16.2017 67.5254 16.5474C68.2227 16.8931 68.7617 17.3618 69.1426 17.9536C69.5234 18.5454 69.7139 19.2104 69.7139 19.9487H67.3057C67.3057 19.5503 67.2207 19.1987 67.0508 18.894C66.8867 18.5894 66.6348 18.3491 66.2949 18.1733C65.9609 17.9976 65.5391 17.9097 65.0293 17.9097C64.5371 17.9097 64.127 17.9829 63.7988 18.1294C63.4766 18.2759 63.2334 18.4751 63.0693 18.7271C62.9111 18.979 62.832 19.2603 62.832 19.5708C62.832 19.8052 62.8877 20.0161 62.999 20.2036C63.1104 20.3853 63.2773 20.5581 63.5 20.7222C63.7227 20.8804 63.998 21.0298 64.3262 21.1704C64.6602 21.3052 65.0469 21.4399 65.4863 21.5747C66.1895 21.7856 66.8047 22.02 67.332 22.2778C67.8652 22.5356 68.3076 22.8286 68.6592 23.1567C69.0166 23.4849 69.2832 23.854 69.459 24.2642C69.6406 24.6743 69.7314 25.1401 69.7314 25.6616C69.7314 26.2124 69.623 26.7046 69.4062 27.1382C69.1895 27.5718 68.8789 27.9409 68.4746 28.2456C68.0703 28.5503 67.584 28.7817 67.0156 28.9399C66.4531 29.0981 65.8232 29.1772 65.126 29.1772C64.5049 29.1772 63.8896 29.0952 63.2803 28.9312C62.6768 28.7612 62.1289 28.5093 61.6367 28.1753C61.1445 27.8354 60.752 27.4077 60.459 26.8921C60.166 26.3706 60.0195 25.7612 60.0195 25.064H62.4453C62.4453 25.4683 62.5098 25.814 62.6387 26.1011C62.7734 26.3823 62.9609 26.6138 63.2012 26.7954C63.4473 26.9712 63.7344 27.1001 64.0625 27.1821C64.3906 27.2642 64.7451 27.3052 65.126 27.3052C65.6182 27.3052 66.0225 27.2378 66.3389 27.103C66.6611 26.9624 66.9014 26.769 67.0596 26.5229C67.2236 26.2769 67.3057 25.9956 67.3057 25.6792Z" fill="#D4B930"/>
</svg>
