<svg width="88" height="47" viewBox="0 0 88 47" fill="none" xmlns="http://www.w3.org/2000/svg">
<rect width="88" height="47" fill="#D4B930"/>
<rect x="2" y="2" width="84" height="43" fill="#171612"/>
<path d="M20.7148 16.2031V29H18.3066V16.2031H20.7148ZM24.6875 16.2031V18.1104H14.3779V16.2031H24.6875ZM36.4121 22.2764V22.9355C36.4121 23.9023 36.2832 24.7725 36.0254 25.5459C35.7676 26.3135 35.4014 26.9668 34.9268 27.5059C34.4521 28.0449 33.8867 28.458 33.2305 28.7451C32.5742 29.0322 31.8447 29.1758 31.042 29.1758C30.251 29.1758 29.5244 29.0322 28.8623 28.7451C28.2061 28.458 27.6377 28.0449 27.1572 27.5059C26.6768 26.9668 26.3047 26.3135 26.041 25.5459C25.7773 24.7725 25.6455 23.9023 25.6455 22.9355V22.2764C25.6455 21.3037 25.7773 20.4336 26.041 19.666C26.3047 18.8984 26.6738 18.2451 27.1484 17.7061C27.623 17.1611 28.1885 16.7451 28.8447 16.458C29.5068 16.1709 30.2334 16.0273 31.0244 16.0273C31.8271 16.0273 32.5566 16.1709 33.2129 16.458C33.8691 16.7451 34.4346 17.1611 34.9092 17.7061C35.3896 18.2451 35.7588 18.8984 36.0166 19.666C36.2803 20.4336 36.4121 21.3037 36.4121 22.2764ZM33.9688 22.9355V22.2588C33.9688 21.5615 33.9043 20.9492 33.7754 20.4219C33.6465 19.8887 33.4561 19.4404 33.2041 19.0771C32.9521 18.7139 32.6416 18.4414 32.2725 18.2598C31.9033 18.0723 31.4873 17.9785 31.0244 17.9785C30.5557 17.9785 30.1396 18.0723 29.7764 18.2598C29.4189 18.4414 29.1143 18.7139 28.8623 19.0771C28.6104 19.4404 28.417 19.8887 28.2822 20.4219C28.1533 20.9492 28.0889 21.5615 28.0889 22.2588V22.9355C28.0889 23.627 28.1533 24.2393 28.2822 24.7725C28.417 25.3057 28.6104 25.7568 28.8623 26.126C29.1201 26.4893 29.4307 26.7646 29.7939 26.9521C30.1572 27.1396 30.5732 27.2334 31.042 27.2334C31.5107 27.2334 31.9268 27.1396 32.29 26.9521C32.6533 26.7646 32.958 26.4893 33.2041 26.126C33.4561 25.7568 33.6465 25.3057 33.7754 24.7725C33.9043 24.2393 33.9688 23.627 33.9688 22.9355ZM48.8223 22.2764V22.9355C48.8223 23.9023 48.6934 24.7725 48.4355 25.5459C48.1777 26.3135 47.8115 26.9668 47.3369 27.5059C46.8623 28.0449 46.2969 28.458 45.6406 28.7451C44.9844 29.0322 44.2549 29.1758 43.4521 29.1758C42.6611 29.1758 41.9346 29.0322 41.2725 28.7451C40.6162 28.458 40.0479 28.0449 39.5674 27.5059C39.0869 26.9668 38.7148 26.3135 38.4512 25.5459C38.1875 24.7725 38.0557 23.9023 38.0557 22.9355V22.2764C38.0557 21.3037 38.1875 20.4336 38.4512 19.666C38.7148 18.8984 39.084 18.2451 39.5586 17.7061C40.0332 17.1611 40.5986 16.7451 41.2549 16.458C41.917 16.1709 42.6436 16.0273 43.4346 16.0273C44.2373 16.0273 44.9668 16.1709 45.623 16.458C46.2793 16.7451 46.8447 17.1611 47.3193 17.7061C47.7998 18.2451 48.1689 18.8984 48.4268 19.666C48.6904 20.4336 48.8223 21.3037 48.8223 22.2764ZM46.3789 22.9355V22.2588C46.3789 21.5615 46.3145 20.9492 46.1855 20.4219C46.0566 19.8887 45.8662 19.4404 45.6143 19.0771C45.3623 18.7139 45.0518 18.4414 44.6826 18.2598C44.3135 18.0723 43.8975 17.9785 43.4346 17.9785C42.9658 17.9785 42.5498 18.0723 42.1865 18.2598C41.8291 18.4414 41.5244 18.7139 41.2725 19.0771C41.0205 19.4404 40.8271 19.8887 40.6924 20.4219C40.5635 20.9492 40.499 21.5615 40.499 22.2588V22.9355C40.499 23.627 40.5635 24.2393 40.6924 24.7725C40.8271 25.3057 41.0205 25.7568 41.2725 26.126C41.5303 26.4893 41.8408 26.7646 42.2041 26.9521C42.5674 27.1396 42.9834 27.2334 43.4521 27.2334C43.9209 27.2334 44.3369 27.1396 44.7002 26.9521C45.0635 26.7646 45.3682 26.4893 45.6143 26.126C45.8662 25.7568 46.0566 25.3057 46.1855 24.7725C46.3145 24.2393 46.3789 23.627 46.3789 22.9355ZM58.9912 27.1016V29H52.5576V27.1016H58.9912ZM53.2871 16.2031V29H50.8701V16.2031H53.2871ZM67.3057 25.6777C67.3057 25.4316 67.2676 25.2119 67.1914 25.0186C67.1211 24.8193 66.9893 24.6406 66.7959 24.4824C66.6084 24.3184 66.3418 24.1602 65.9961 24.0078C65.6562 23.8496 65.2168 23.6855 64.6777 23.5156C64.0801 23.3281 63.5234 23.1172 63.0078 22.8828C62.4922 22.6484 62.0381 22.376 61.6455 22.0654C61.2588 21.7549 60.957 21.3975 60.7402 20.9932C60.5234 20.583 60.415 20.1084 60.415 19.5693C60.415 19.042 60.5264 18.5615 60.749 18.1279C60.9775 17.6943 61.2998 17.3223 61.7158 17.0117C62.1318 16.6953 62.6211 16.4521 63.1836 16.2822C63.752 16.1123 64.3789 16.0273 65.0645 16.0273C66.0137 16.0273 66.834 16.2002 67.5254 16.5459C68.2227 16.8916 68.7617 17.3604 69.1426 17.9521C69.5234 18.5439 69.7139 19.209 69.7139 19.9473H67.3057C67.3057 19.5488 67.2207 19.1973 67.0508 18.8926C66.8867 18.5879 66.6348 18.3477 66.2949 18.1719C65.9609 17.9961 65.5391 17.9082 65.0293 17.9082C64.5371 17.9082 64.127 17.9814 63.7988 18.1279C63.4766 18.2744 63.2334 18.4736 63.0693 18.7256C62.9111 18.9775 62.832 19.2588 62.832 19.5693C62.832 19.8037 62.8877 20.0146 62.999 20.2021C63.1104 20.3838 63.2773 20.5566 63.5 20.7207C63.7227 20.8789 63.998 21.0283 64.3262 21.1689C64.6602 21.3037 65.0469 21.4385 65.4863 21.5732C66.1895 21.7842 66.8047 22.0186 67.332 22.2764C67.8652 22.5342 68.3076 22.8271 68.6592 23.1553C69.0166 23.4834 69.2832 23.8525 69.459 24.2627C69.6406 24.6729 69.7314 25.1387 69.7314 25.6602C69.7314 26.2109 69.623 26.7031 69.4062 27.1367C69.1895 27.5703 68.8789 27.9395 68.4746 28.2441C68.0703 28.5488 67.584 28.7803 67.0156 28.9385C66.4531 29.0967 65.8232 29.1758 65.126 29.1758C64.5049 29.1758 63.8896 29.0938 63.2803 28.9297C62.6768 28.7598 62.1289 28.5078 61.6367 28.1738C61.1445 27.834 60.752 27.4062 60.459 26.8906C60.166 26.3691 60.0195 25.7598 60.0195 25.0625H62.4453C62.4453 25.4668 62.5098 25.8125 62.6387 26.0996C62.7734 26.3809 62.9609 26.6123 63.2012 26.7939C63.4473 26.9697 63.7344 27.0986 64.0625 27.1807C64.3906 27.2627 64.7451 27.3037 65.126 27.3037C65.6182 27.3037 66.0225 27.2363 66.3389 27.1016C66.6611 26.9609 66.9014 26.7676 67.0596 26.5215C67.2236 26.2754 67.3057 25.9941 67.3057 25.6777Z" fill="#33DC24"/>
</svg>
